M48
METRIC,LZ,000.000
;FILE_FORMAT=3:3
;TYPE=PLATED
;Layer: Drill PTH
;EasyEDA v6.4.23, 2021-09-03T20:22:04+02:00
;df207e5be6814a9699ce4ef5e016687c,9749f264c22c4078942e6e06db5db619,10
;Gerber Generator version 0.2
;Holesize 1 = 0.310 mm
T01C0.310
;Holesize 2 = 0.712 mm
T02C0.712
;Holesize 3 = 0.800 mm
T03C0.800
;Holesize 4 = 0.881 mm
T04C0.881
;Holesize 5 = 0.915 mm
T05C0.915
;Holesize 6 = 1.000 mm
T06C1.000
;Holesize 7 = 1.101 mm
T07C1.101
;Holesize 8 = 1.200 mm
T08C1.200
%
G05
G90
T01
X212865Y036005
X142735Y032649
T02
X118237Y047879
X115697Y047879
X156718Y048260
X154178Y048260
X192024Y048514
X189484Y048514
X121920Y041402
X124460Y041402
X161163Y042418
X163703Y042418
X196469Y042672
X199009Y042672
X206121Y044450
X206121Y041910
T03
X115967Y052578
X117967Y052578
X154321Y053594
X156321Y053594
X190135Y053721
X192135Y053721
X106426Y064318
X106426Y071318
X148844Y064318
X148844Y071318
X196342Y063810
X196342Y070810
X126746Y064191
X126746Y071191
X171704Y064318
X171704Y071318
X219837Y063556
X219837Y070556
X122174Y057602
T04
X234442Y076200
T05
X134028Y026797
X123528Y026797
X134028Y031115
X123528Y031115
X134155Y035179
X123655Y035179
X134155Y038481
X123655Y038481
X109728Y064219
X109728Y074719
X152908Y063965
X152908Y074465
X200660Y063584
X200660Y074084
X130556Y064092
X130556Y074592
X175895Y063584
X175895Y074084
X224028Y062949
X224028Y073449
X170180Y031580
X170180Y042080
X175133Y031707
X175133Y042207
X179832Y031453
X179832Y041953
X183896Y031453
X183896Y041953
X103124Y064219
X103124Y074719
X144653Y063965
X144653Y074465
X192024Y063965
X192024Y074465
X122936Y063965
X122936Y074465
X167640Y063965
X167640Y074465
X216027Y063330
X216027Y073830
T06
X113538Y073434
X113538Y064234
X157226Y064107
X157226Y073307
X205105Y063472
X205105Y072672
X134366Y064107
X134366Y073307
X180721Y063853
X180721Y073053
X227965Y063218
X227965Y072418
X139446Y028067
X141986Y028067
X141986Y035687
X139446Y035687
X146431Y028067
X148971Y028067
X148971Y035687
X146431Y035687
X153416Y028067
X155956Y028067
X155956Y035687
X153416Y035687
X160274Y028194
X162814Y028194
X162814Y035814
X160274Y035814
X110998Y055527
X110998Y046327
X149352Y055400
X149352Y046200
X184404Y056035
X184404Y046835
X107770Y085090G85X107170Y085090
X113330Y085090G85X112730Y085090
X118890Y085090G85X118290Y085090
X127709Y085090G85X127109Y085090
X133269Y085090G85X132669Y085090
X138829Y085090G85X138229Y085090
X150950Y085090G85X150350Y085090
X156510Y085090G85X155910Y085090
X162070Y085090G85X161470Y085090
X170889Y084709G85X170289Y084709
X176449Y084709G85X175849Y084709
X182009Y084709G85X181409Y084709
X194003Y084709G85X193403Y084709
X199563Y084709G85X198963Y084709
X205123Y084709G85X204523Y084709
X213307Y084455G85X212707Y084455
X218867Y084455G85X218267Y084455
X224427Y084455G85X223827Y084455
X117729Y074619
X117729Y064319
X162052Y074365
X162052Y064065
X210185Y073857
X210185Y063557
X138938Y074365
X138938Y064065
X186182Y073984
X186182Y063684
X231394Y062668
X231394Y072968
T07
X215084Y098552G85X214684Y098552
X207464Y098552G85X207064Y098552
X199844Y098552G85X199444Y098552
X192224Y098552G85X191824Y098552
X122047Y046736
X124587Y046736
X124587Y054356
X122047Y054356
X127127Y046736
X129667Y046736
X127127Y054356
X129667Y054356
X160782Y047117
X163322Y047117
X163322Y054737
X160782Y054737
X165862Y047117
X168402Y047117
X165862Y054737
X168402Y054737
X196850Y047879
X199390Y047879
X199390Y055499
X196850Y055499
X201930Y047879
X204470Y047879
X201930Y055499
X204470Y055499
X183842Y098552G85X183442Y098552
X176222Y098552G85X175822Y098552
X168602Y098552G85X168202Y098552
X160982Y098552G85X160582Y098552
T08
X133223Y101219
X130683Y101219
X174244Y023241
X176784Y023241
X179324Y023241
X181864Y023241
X230759Y023114
X230759Y025654
X230759Y028194
X230759Y030734
X184404Y023241
M30
