G04 Layer: BottomSolderMaskLayer*
G04 EasyEDA v6.4.23, 2021-09-03T20:22:04+02:00*
G04 df207e5be6814a9699ce4ef5e016687c,9749f264c22c4078942e6e06db5db619,10*
G04 Gerber Generator version 0.2*
G04 Scale: 100 percent, Rotated: No, Reflected: No *
G04 Dimensions in millimeters *
G04 leading zeros omitted , absolute positions ,4 integer and 5 decimal *
%FSLAX45Y45*%
%MOMM*%

%ADD35C,2.6016*%
%ADD42C,1.9016*%
%ADD45C,2.0016*%
%ADD46C,1.7016*%
%ADD50C,2.0032*%
%ADD51C,1.6256*%
%ADD52C,1.4016*%
%ADD53C,1.2954*%
%ADD54R,2.3016X1.7016*%
%ADD57C,1.4032*%

%LPD*%
D35*
X11303000Y8509000D02*
G01*
X11303000Y9550400D01*
X15621000Y9550400D01*
X15621000Y8509000D01*
X19926300Y8470900D02*
G01*
X19926300Y9817100D01*
X19964400Y9855200D01*
X15621000Y8509000D02*
G01*
X15621000Y9314179D01*
X19926300Y9331960D01*
X19926300Y8470900D01*
D45*
X21508399Y9855200D02*
G01*
X21468400Y9855200D01*
X20746399Y9855200D02*
G01*
X20706400Y9855200D01*
X19984399Y9855200D02*
G01*
X19944400Y9855200D01*
X19222399Y9855200D02*
G01*
X19182400Y9855200D01*
D46*
X11273000Y8509000D02*
G01*
X11332999Y8509000D01*
X11829006Y8509000D02*
G01*
X11889005Y8509000D01*
X13266900Y8509000D02*
G01*
X13326899Y8509000D01*
X13822906Y8509000D02*
G01*
X13882905Y8509000D01*
X15591000Y8509000D02*
G01*
X15650999Y8509000D01*
X16147006Y8509000D02*
G01*
X16207005Y8509000D01*
X17584900Y8470900D02*
G01*
X17644899Y8470900D01*
X18140906Y8470900D02*
G01*
X18200905Y8470900D01*
X19896300Y8470900D02*
G01*
X19956299Y8470900D01*
X20452306Y8470900D02*
G01*
X20512305Y8470900D01*
X21826700Y8445500D02*
G01*
X21886699Y8445500D01*
X22382706Y8445500D02*
G01*
X22442705Y8445500D01*
D45*
X18384199Y9855200D02*
G01*
X18344200Y9855200D01*
X17622199Y9855200D02*
G01*
X17582200Y9855200D01*
X16860199Y9855200D02*
G01*
X16820200Y9855200D01*
X16098199Y9855200D02*
G01*
X16058200Y9855200D01*
D42*
G01*
X11353800Y7343394D03*
G01*
X11353800Y6423405D03*
G01*
X15722600Y6410705D03*
G01*
X15722600Y7330694D03*
G01*
X20510500Y6347205D03*
G01*
X20510500Y7267194D03*
G01*
X13436600Y6410705D03*
G01*
X13436600Y7330694D03*
G01*
X18072100Y6385305D03*
G01*
X18072100Y7305294D03*
G01*
X22796500Y6321805D03*
G01*
X22796500Y7241794D03*
G36*
X13844524Y2706623D02*
G01*
X13844524Y2906776D01*
X14044675Y2906776D01*
X14044675Y2706623D01*
G37*
D50*
G01*
X14198600Y2806700D03*
G01*
X14198600Y3568700D03*
G01*
X13944600Y3568700D03*
G36*
X14543024Y2706623D02*
G01*
X14543024Y2906776D01*
X14743175Y2906776D01*
X14743175Y2706623D01*
G37*
G01*
X14897100Y2806700D03*
G01*
X14897100Y3568700D03*
G01*
X14643100Y3568700D03*
G36*
X15241524Y2706623D02*
G01*
X15241524Y2906776D01*
X15441675Y2906776D01*
X15441675Y2706623D01*
G37*
G01*
X15595600Y2806700D03*
G01*
X15595600Y3568700D03*
G01*
X15341600Y3568700D03*
G36*
X15927324Y2719323D02*
G01*
X15927324Y2919476D01*
X16127475Y2919476D01*
X16127475Y2719323D01*
G37*
G01*
X16281400Y2819400D03*
G01*
X16281400Y3581400D03*
G01*
X16027400Y3581400D03*
D51*
G01*
X13402792Y2679700D03*
G01*
X12352781Y2679700D03*
G01*
X13402792Y3111500D03*
G01*
X12352781Y3111500D03*
G01*
X13415492Y3517900D03*
G01*
X12365481Y3517900D03*
G01*
X13415492Y3848100D03*
G01*
X12365481Y3848100D03*
G01*
X10972800Y6421881D03*
G01*
X10972800Y7471892D03*
G01*
X15290800Y6396481D03*
G01*
X15290800Y7446492D03*
G01*
X20066000Y6358381D03*
G01*
X20066000Y7408392D03*
G01*
X13055600Y6409181D03*
G01*
X13055600Y7459192D03*
G01*
X17589500Y6358381D03*
G01*
X17589500Y7408392D03*
G01*
X22402800Y6294881D03*
G01*
X22402800Y7344892D03*
D52*
G01*
X11596700Y5257800D03*
G01*
X11796699Y5257800D03*
G01*
X15432100Y5359400D03*
G01*
X15632099Y5359400D03*
G01*
X19013500Y5372100D03*
G01*
X19213499Y5372100D03*
D53*
G01*
X11823700Y4787900D03*
G01*
X11569700Y4787900D03*
G01*
X15671800Y4826000D03*
G01*
X15417800Y4826000D03*
G01*
X19202400Y4851400D03*
G01*
X18948400Y4851400D03*
G01*
X12192000Y4140200D03*
G01*
X12446000Y4140200D03*
G01*
X16116300Y4241800D03*
G01*
X16370300Y4241800D03*
G01*
X19646900Y4267200D03*
G01*
X19900900Y4267200D03*
G01*
X20612100Y4445000D03*
G01*
X20612100Y4191000D03*
D51*
G01*
X17018000Y3157981D03*
G01*
X17018000Y4207992D03*
G01*
X17513300Y3170681D03*
G01*
X17513300Y4220692D03*
G01*
X17983200Y3145281D03*
G01*
X17983200Y4195292D03*
G01*
X18389600Y3145281D03*
G01*
X18389600Y4195292D03*
D42*
G01*
X11099800Y5552694D03*
G01*
X11099800Y4632705D03*
G01*
X14935200Y5539994D03*
G01*
X14935200Y4620005D03*
G01*
X18440400Y5603494D03*
G01*
X18440400Y4683505D03*
D51*
G01*
X10312400Y6421881D03*
G01*
X10312400Y7471892D03*
G01*
X14465300Y6396481D03*
G01*
X14465300Y7446492D03*
G01*
X19202400Y6396481D03*
G01*
X19202400Y7446492D03*
G01*
X12293600Y6396481D03*
G01*
X12293600Y7446492D03*
G01*
X16764000Y6396481D03*
G01*
X16764000Y7446492D03*
G01*
X21602700Y6332981D03*
G01*
X21602700Y7382992D03*
D42*
G01*
X12204700Y4673600D03*
G01*
X12458700Y4673600D03*
G01*
X12458700Y5435600D03*
G01*
X12204700Y5435600D03*
G01*
X12712700Y4673600D03*
G01*
X12966700Y4673600D03*
G01*
X12712700Y5435600D03*
G01*
X12966700Y5435600D03*
G01*
X16078200Y4711700D03*
G01*
X16332200Y4711700D03*
G01*
X16332200Y5473700D03*
G01*
X16078200Y5473700D03*
G01*
X16586200Y4711700D03*
G01*
X16840200Y4711700D03*
G01*
X16586200Y5473700D03*
G01*
X16840200Y5473700D03*
G01*
X19685000Y4787900D03*
G01*
X19939000Y4787900D03*
G01*
X19939000Y5549900D03*
G01*
X19685000Y5549900D03*
G01*
X20193000Y4787900D03*
G01*
X20447000Y4787900D03*
G01*
X20193000Y5549900D03*
G01*
X20447000Y5549900D03*
D54*
G01*
X10746993Y8509000D03*
G01*
X12740893Y8509000D03*
G01*
X15064993Y8509000D03*
G01*
X17058893Y8470900D03*
G01*
X19370293Y8470900D03*
G01*
X21300693Y8445500D03*
D46*
G01*
X10642600Y6431787D03*
G01*
X10642600Y7131786D03*
G01*
X14884400Y6431787D03*
G01*
X14884400Y7131786D03*
G01*
X19634200Y6380987D03*
G01*
X19634200Y7080986D03*
G01*
X12674600Y6419087D03*
G01*
X12674600Y7119086D03*
G01*
X17170400Y6431787D03*
G01*
X17170400Y7131786D03*
G01*
X21983700Y6355587D03*
G01*
X21983700Y7055586D03*
D51*
G01*
X11772900Y7461910D03*
G01*
X11772900Y6431889D03*
G01*
X16205200Y7436510D03*
G01*
X16205200Y6406489D03*
G01*
X21018500Y7385710D03*
G01*
X21018500Y6355689D03*
G01*
X13893800Y7436510D03*
G01*
X13893800Y6406489D03*
G01*
X18618200Y7398410D03*
G01*
X18618200Y6368389D03*
G01*
X23139400Y6266789D03*
G01*
X23139400Y7296810D03*
D42*
G01*
X13322300Y10121900D03*
G01*
X13068300Y10121900D03*
G01*
X17424400Y2324100D03*
G01*
X17678400Y2324100D03*
G01*
X17932400Y2324100D03*
G01*
X18186400Y2324100D03*
G01*
X23075900Y2311400D03*
G01*
X23075900Y2565400D03*
G01*
X23075900Y2819400D03*
G01*
X23075900Y3073400D03*
D57*
G01*
X23444200Y7620000D03*
D42*
G01*
X18440400Y2324100D03*
M02*
