G04 Layer: TopSilkLayer*
G04 EasyEDA v6.4.23, 2021-09-03T20:22:04+02:00*
G04 df207e5be6814a9699ce4ef5e016687c,9749f264c22c4078942e6e06db5db619,10*
G04 Gerber Generator version 0.2*
G04 Scale: 100 percent, Rotated: No, Reflected: No *
G04 Dimensions in millimeters *
G04 leading zeros omitted , absolute positions ,4 integer and 5 decimal *
%FSLAX45Y45*%
%MOMM*%

%ADD10C,0.2540*%
%ADD17C,0.5000*%
%ADD20C,0.3000*%
%ADD36C,0.2007*%
%ADD37C,0.1524*%
%ADD38C,0.2489*%
%ADD39C,0.2032*%
%ADD40C,0.2000*%

%LPD*%
D39*
X16141700Y11123421D02*
G01*
X16141700Y11261852D01*
X16132556Y11289537D01*
X16114013Y11308079D01*
X16086327Y11317224D01*
X16067786Y11317224D01*
X16040100Y11308079D01*
X16021558Y11289537D01*
X16012413Y11261852D01*
X16012413Y11123421D01*
X16891000Y11123302D02*
G01*
X16817086Y11317358D01*
X16743172Y11123302D02*
G01*
X16817086Y11317358D01*
X17691178Y11123302D02*
G01*
X17644950Y11317358D01*
X17598722Y11123302D02*
G01*
X17644950Y11317358D01*
X17598722Y11123302D02*
G01*
X17552494Y11317358D01*
X17506266Y11123302D02*
G01*
X17552494Y11317358D01*
X18479731Y11156830D02*
G01*
X18488875Y11138288D01*
X18507417Y11120000D01*
X18525959Y11110602D01*
X18562789Y11110602D01*
X18581331Y11120000D01*
X18599619Y11138288D01*
X18609017Y11156830D01*
X18618161Y11184516D01*
X18618161Y11230744D01*
X18609017Y11258430D01*
X18599619Y11276972D01*
X18581331Y11295260D01*
X18562789Y11304658D01*
X18525959Y11304658D01*
X18507417Y11295260D01*
X18488875Y11276972D01*
X18479731Y11258430D01*
X18479731Y11230744D01*
X18525959Y11230744D02*
G01*
X18479731Y11230744D01*
X18418771Y11110602D02*
G01*
X18418771Y11304658D01*
X18418771Y11110602D02*
G01*
X18289485Y11304658D01*
X18289485Y11110602D02*
G01*
X18289485Y11304658D01*
X18228525Y11110602D02*
G01*
X18228525Y11304658D01*
X18228525Y11110602D02*
G01*
X18163755Y11110602D01*
X18136069Y11120000D01*
X18117527Y11138288D01*
X18108383Y11156830D01*
X18099239Y11184516D01*
X18099239Y11230744D01*
X18108383Y11258430D01*
X18117527Y11276972D01*
X18136069Y11295260D01*
X18163755Y11304658D01*
X18228525Y11304658D01*
X19305082Y11156830D02*
G01*
X19314480Y11138288D01*
X19332768Y11120000D01*
X19351310Y11110602D01*
X19388394Y11110602D01*
X19406682Y11120000D01*
X19425224Y11138288D01*
X19434368Y11156830D01*
X19443766Y11184516D01*
X19443766Y11230744D01*
X19434368Y11258430D01*
X19425224Y11276972D01*
X19406682Y11295260D01*
X19388394Y11304658D01*
X19351310Y11304658D01*
X19332768Y11295260D01*
X19314480Y11276972D01*
X19305082Y11258430D01*
X19305082Y11230744D01*
X19351310Y11230744D02*
G01*
X19305082Y11230744D01*
X19244122Y11110602D02*
G01*
X19244122Y11304658D01*
X19244122Y11110602D02*
G01*
X19114836Y11304658D01*
X19114836Y11110602D02*
G01*
X19114836Y11304658D01*
X19053876Y11110602D02*
G01*
X19053876Y11304658D01*
X19053876Y11110602D02*
G01*
X18989360Y11110602D01*
X18961674Y11120000D01*
X18943132Y11138288D01*
X18933734Y11156830D01*
X18924590Y11184516D01*
X18924590Y11230744D01*
X18933734Y11258430D01*
X18943132Y11276972D01*
X18961674Y11295260D01*
X18989360Y11304658D01*
X19053876Y11304658D01*
X20274854Y11138423D02*
G01*
X20274854Y11304539D01*
X20358166Y11221481D02*
G01*
X20191796Y11221481D01*
X20112294Y11110737D02*
G01*
X20010694Y11110737D01*
X20066320Y11184651D01*
X20038634Y11184651D01*
X20020092Y11193795D01*
X20010694Y11202939D01*
X20001550Y11230625D01*
X20001550Y11249167D01*
X20010694Y11276853D01*
X20029236Y11295395D01*
X20056922Y11304539D01*
X20084608Y11304539D01*
X20112294Y11295395D01*
X20121692Y11286251D01*
X20130836Y11267709D01*
X19940590Y11147567D02*
G01*
X19922048Y11138423D01*
X19894362Y11110737D01*
X19894362Y11304539D01*
X19833402Y11147567D02*
G01*
X19815114Y11138423D01*
X19787174Y11110737D01*
X19787174Y11304539D01*
X19726214Y11110737D02*
G01*
X19652554Y11304539D01*
X19578640Y11110737D02*
G01*
X19652554Y11304539D01*
X20624733Y11219418D02*
G01*
X20791103Y11219418D01*
X21602611Y11110747D02*
G01*
X21602611Y11304549D01*
X21602611Y11110747D02*
G01*
X21473325Y11304549D01*
X21473325Y11110747D02*
G01*
X21473325Y11304549D01*
X21273935Y11156721D02*
G01*
X21283079Y11138433D01*
X21301621Y11119891D01*
X21320163Y11110747D01*
X21356993Y11110747D01*
X21375535Y11119891D01*
X21394077Y11138433D01*
X21403221Y11156721D01*
X21412365Y11184661D01*
X21412365Y11230635D01*
X21403221Y11258321D01*
X21394077Y11276863D01*
X21375535Y11295405D01*
X21356993Y11304549D01*
X21320163Y11304549D01*
X21301621Y11295405D01*
X21283079Y11276863D01*
X21273935Y11258321D01*
X23469600Y3148584D02*
G01*
X23469600Y3005328D01*
X23469600Y3148584D02*
G01*
X23517352Y3148584D01*
X23537672Y3141726D01*
X23551388Y3128010D01*
X23558245Y3114547D01*
X23565104Y3093973D01*
X23565104Y3059937D01*
X23558245Y3039363D01*
X23551388Y3025902D01*
X23537672Y3012186D01*
X23517352Y3005328D01*
X23469600Y3005328D01*
X23712424Y3114547D02*
G01*
X23705566Y3128010D01*
X23691850Y3141726D01*
X23678134Y3148584D01*
X23650956Y3148584D01*
X23637240Y3141726D01*
X23623777Y3128010D01*
X23616920Y3114547D01*
X23610061Y3093973D01*
X23610061Y3059937D01*
X23616920Y3039363D01*
X23623777Y3025902D01*
X23637240Y3012186D01*
X23650956Y3005328D01*
X23678134Y3005328D01*
X23691850Y3012186D01*
X23705566Y3025902D01*
X23712424Y3039363D01*
X23712424Y3059937D01*
X23678134Y3059937D02*
G01*
X23712424Y3059937D01*
X23757381Y3148584D02*
G01*
X23757381Y3005328D01*
X23757381Y3148584D02*
G01*
X23852886Y3005328D01*
X23852886Y3148584D02*
G01*
X23852886Y3005328D01*
X23897843Y3148584D02*
G01*
X23897843Y3005328D01*
X23897843Y3148584D02*
G01*
X23945595Y3148584D01*
X23965916Y3141726D01*
X23979631Y3128010D01*
X23986490Y3114547D01*
X23993348Y3093973D01*
X23993348Y3059937D01*
X23986490Y3039363D01*
X23979631Y3025902D01*
X23965916Y3012186D01*
X23945595Y3005328D01*
X23897843Y3005328D01*
X23501858Y2882392D02*
G01*
X23501858Y2716276D01*
X23418800Y2799334D02*
G01*
X23585170Y2799334D01*
X23756874Y2910078D02*
G01*
X23664418Y2910078D01*
X23655274Y2827020D01*
X23664418Y2836163D01*
X23692104Y2845562D01*
X23719790Y2845562D01*
X23747729Y2836163D01*
X23766018Y2817876D01*
X23775416Y2790189D01*
X23775416Y2771647D01*
X23766018Y2743962D01*
X23747729Y2725420D01*
X23719790Y2716276D01*
X23692104Y2716276D01*
X23664418Y2725420D01*
X23655274Y2734563D01*
X23646129Y2753105D01*
X23836375Y2910078D02*
G01*
X23910290Y2716276D01*
X23983950Y2910078D02*
G01*
X23910290Y2716276D01*
X23563072Y2643378D02*
G01*
X23544529Y2634234D01*
X23526241Y2615692D01*
X23516843Y2597150D01*
X23507700Y2569463D01*
X23507700Y2523489D01*
X23516843Y2495550D01*
X23526241Y2477262D01*
X23544529Y2458720D01*
X23563072Y2449576D01*
X23600156Y2449576D01*
X23618443Y2458720D01*
X23636986Y2477262D01*
X23646129Y2495550D01*
X23655527Y2523489D01*
X23655527Y2569463D01*
X23646129Y2597150D01*
X23636986Y2615692D01*
X23618443Y2634234D01*
X23600156Y2643378D01*
X23563072Y2643378D01*
X23790402Y2643378D02*
G01*
X23771859Y2643378D01*
X23753318Y2634234D01*
X23744174Y2606547D01*
X23744174Y2449576D01*
X23716488Y2578862D02*
G01*
X23781004Y2578862D01*
X23925275Y2643378D02*
G01*
X23906734Y2643378D01*
X23888191Y2634234D01*
X23879048Y2606547D01*
X23879048Y2449576D01*
X23851361Y2578862D02*
G01*
X23915877Y2578862D01*
D40*
X23469600Y2361184D02*
G01*
X23469600Y2217928D01*
X23514558Y2170176D02*
G01*
X23637240Y2170176D01*
X23764240Y2313431D02*
G01*
X23764240Y2217928D01*
X23764240Y2292857D02*
G01*
X23750524Y2306573D01*
X23736808Y2313431D01*
X23716488Y2313431D01*
X23702772Y2306573D01*
X23689056Y2292857D01*
X23682452Y2272537D01*
X23682452Y2258821D01*
X23689056Y2238502D01*
X23702772Y2224786D01*
X23716488Y2217928D01*
X23736808Y2217928D01*
X23750524Y2224786D01*
X23764240Y2238502D01*
X23890986Y2292857D02*
G01*
X23877270Y2306573D01*
X23863808Y2313431D01*
X23843234Y2313431D01*
X23829518Y2306573D01*
X23816056Y2292857D01*
X23809198Y2272537D01*
X23809198Y2258821D01*
X23816056Y2238502D01*
X23829518Y2224786D01*
X23843234Y2217928D01*
X23863808Y2217928D01*
X23877270Y2224786D01*
X23890986Y2238502D01*
X23956518Y2361184D02*
G01*
X23956518Y2245360D01*
X23963122Y2224786D01*
X23976838Y2217928D01*
X23990554Y2217928D01*
X23935943Y2313431D02*
G01*
X23983695Y2313431D01*
X18846800Y3210305D02*
G01*
X18860516Y3216910D01*
X18880836Y3237484D01*
X18880836Y3094228D01*
X18925793Y3155695D02*
G01*
X19048729Y3155695D01*
X19093688Y3237484D02*
G01*
X19093688Y3094228D01*
X19093688Y3237484D02*
G01*
X19182334Y3237484D01*
X19093688Y3169157D02*
G01*
X19148043Y3169157D01*
X19093688Y3094228D02*
G01*
X19182334Y3094228D01*
X19227291Y3189731D02*
G01*
X19227291Y3094228D01*
X19227291Y3162554D02*
G01*
X19247611Y3182873D01*
X19261327Y3189731D01*
X19281902Y3189731D01*
X19295363Y3182873D01*
X19302222Y3162554D01*
X19302222Y3094228D01*
X19428968Y3189731D02*
G01*
X19428968Y3094228D01*
X19428968Y3169157D02*
G01*
X19415506Y3182873D01*
X19401790Y3189731D01*
X19381470Y3189731D01*
X19367754Y3182873D01*
X19354038Y3169157D01*
X19347179Y3148837D01*
X19347179Y3135121D01*
X19354038Y3114802D01*
X19367754Y3101086D01*
X19381470Y3094228D01*
X19401790Y3094228D01*
X19415506Y3101086D01*
X19428968Y3114802D01*
X19474179Y3237484D02*
G01*
X19474179Y3094228D01*
X19474179Y3169157D02*
G01*
X19487641Y3182873D01*
X19501358Y3189731D01*
X19521677Y3189731D01*
X19535393Y3182873D01*
X19549109Y3169157D01*
X19555968Y3148837D01*
X19555968Y3135121D01*
X19549109Y3114802D01*
X19535393Y3101086D01*
X19521677Y3094228D01*
X19501358Y3094228D01*
X19487641Y3101086D01*
X19474179Y3114802D01*
X19600925Y3237484D02*
G01*
X19600925Y3094228D01*
X19645884Y3148837D02*
G01*
X19727672Y3148837D01*
X19727672Y3162554D01*
X19720813Y3176015D01*
X19713956Y3182873D01*
X19700493Y3189731D01*
X19679920Y3189731D01*
X19666458Y3182873D01*
X19652741Y3169157D01*
X19645884Y3148837D01*
X19645884Y3135121D01*
X19652741Y3114802D01*
X19666458Y3101086D01*
X19679920Y3094228D01*
X19700493Y3094228D01*
X19713956Y3101086D01*
X19727672Y3114802D01*
X18853658Y2873247D02*
G01*
X18853658Y2880105D01*
X18860516Y2893568D01*
X18867374Y2900426D01*
X18880836Y2907284D01*
X18908268Y2907284D01*
X18921729Y2900426D01*
X18928588Y2893568D01*
X18935445Y2880105D01*
X18935445Y2866389D01*
X18928588Y2852673D01*
X18914872Y2832354D01*
X18846800Y2764028D01*
X18942304Y2764028D01*
X18987261Y2825495D02*
G01*
X19109943Y2825495D01*
X19154902Y2907284D02*
G01*
X19154902Y2764028D01*
X19154902Y2907284D02*
G01*
X19216370Y2907284D01*
X19236690Y2900426D01*
X19243548Y2893568D01*
X19250406Y2880105D01*
X19250406Y2859531D01*
X19243548Y2845815D01*
X19236690Y2838957D01*
X19216370Y2832354D01*
X19154902Y2832354D01*
X19295363Y2907284D02*
G01*
X19329654Y2764028D01*
X19363690Y2907284D02*
G01*
X19329654Y2764028D01*
X19363690Y2907284D02*
G01*
X19397725Y2764028D01*
X19431761Y2907284D02*
G01*
X19397725Y2764028D01*
X19476720Y2907284D02*
G01*
X19476720Y2764028D01*
X19476720Y2907284D02*
G01*
X19531329Y2764028D01*
X19585940Y2907284D02*
G01*
X19531329Y2764028D01*
X19585940Y2907284D02*
G01*
X19585940Y2764028D01*
X19630898Y2716276D02*
G01*
X19753579Y2716276D01*
X19798538Y2880105D02*
G01*
X19812254Y2886710D01*
X19832827Y2907284D01*
X19832827Y2764028D01*
X18860516Y2589784D02*
G01*
X18935445Y2589784D01*
X18894552Y2535173D01*
X18914872Y2535173D01*
X18928588Y2528315D01*
X18935445Y2521457D01*
X18942304Y2501137D01*
X18942304Y2487421D01*
X18935445Y2467102D01*
X18921729Y2453386D01*
X18901409Y2446528D01*
X18880836Y2446528D01*
X18860516Y2453386D01*
X18853658Y2460244D01*
X18846800Y2473960D01*
X18987261Y2507995D02*
G01*
X19109943Y2507995D01*
X19154902Y2589784D02*
G01*
X19154902Y2446528D01*
X19154902Y2589784D02*
G01*
X19216370Y2589784D01*
X19236690Y2582926D01*
X19243548Y2576068D01*
X19250406Y2562605D01*
X19250406Y2542031D01*
X19243548Y2528315D01*
X19236690Y2521457D01*
X19216370Y2514854D01*
X19154902Y2514854D01*
X19295363Y2589784D02*
G01*
X19329654Y2446528D01*
X19363690Y2589784D02*
G01*
X19329654Y2446528D01*
X19363690Y2589784D02*
G01*
X19397725Y2446528D01*
X19431761Y2589784D02*
G01*
X19397725Y2446528D01*
X19476720Y2589784D02*
G01*
X19476720Y2446528D01*
X19476720Y2589784D02*
G01*
X19531329Y2446528D01*
X19585940Y2589784D02*
G01*
X19531329Y2446528D01*
X19585940Y2589784D02*
G01*
X19585940Y2446528D01*
X19630898Y2398776D02*
G01*
X19753579Y2398776D01*
X19805395Y2555747D02*
G01*
X19805395Y2562605D01*
X19812254Y2576068D01*
X19819111Y2582926D01*
X19832827Y2589784D01*
X19860006Y2589784D01*
X19873722Y2582926D01*
X19880325Y2576068D01*
X19887184Y2562605D01*
X19887184Y2548889D01*
X19880325Y2535173D01*
X19866863Y2514854D01*
X19798538Y2446528D01*
X19894041Y2446528D01*
X18914872Y2284984D02*
G01*
X18846800Y2189479D01*
X18949161Y2189479D01*
X18914872Y2284984D02*
G01*
X18914872Y2141728D01*
X18994120Y2203195D02*
G01*
X19116802Y2203195D01*
X19161759Y2284984D02*
G01*
X19161759Y2141728D01*
X19161759Y2284984D02*
G01*
X19223227Y2284984D01*
X19243548Y2278126D01*
X19250406Y2271268D01*
X19257263Y2257805D01*
X19257263Y2237231D01*
X19250406Y2223515D01*
X19243548Y2216657D01*
X19223227Y2210054D01*
X19161759Y2210054D01*
X19302222Y2284984D02*
G01*
X19336258Y2141728D01*
X19370548Y2284984D02*
G01*
X19336258Y2141728D01*
X19370548Y2284984D02*
G01*
X19404584Y2141728D01*
X19438620Y2284984D02*
G01*
X19404584Y2141728D01*
X19483577Y2284984D02*
G01*
X19483577Y2141728D01*
X19483577Y2284984D02*
G01*
X19538188Y2141728D01*
X19592798Y2284984D02*
G01*
X19538188Y2141728D01*
X19592798Y2284984D02*
G01*
X19592798Y2141728D01*
X19637756Y2093976D02*
G01*
X19760438Y2093976D01*
X19819111Y2284984D02*
G01*
X19894041Y2284984D01*
X19853148Y2230373D01*
X19873722Y2230373D01*
X19887184Y2223515D01*
X19894041Y2216657D01*
X19900900Y2196337D01*
X19900900Y2182621D01*
X19894041Y2162302D01*
X19880325Y2148586D01*
X19860006Y2141728D01*
X19839431Y2141728D01*
X19819111Y2148586D01*
X19812254Y2155444D01*
X19805395Y2169160D01*
X17399000Y1838705D02*
G01*
X17412716Y1845310D01*
X17433036Y1865884D01*
X17433036Y1722628D01*
X17659858Y1844547D02*
G01*
X17659858Y1851405D01*
X17666716Y1864868D01*
X17673574Y1871726D01*
X17687036Y1878584D01*
X17714468Y1878584D01*
X17727929Y1871726D01*
X17734788Y1864868D01*
X17741645Y1851405D01*
X17741645Y1837689D01*
X17734788Y1823973D01*
X17721072Y1803654D01*
X17653000Y1735328D01*
X17748504Y1735328D01*
X17908016Y1878584D02*
G01*
X17982945Y1878584D01*
X17942052Y1823973D01*
X17962372Y1823973D01*
X17976088Y1817115D01*
X17982945Y1810257D01*
X17989804Y1789937D01*
X17989804Y1776221D01*
X17982945Y1755902D01*
X17969229Y1742186D01*
X17948909Y1735328D01*
X17928336Y1735328D01*
X17908016Y1742186D01*
X17901158Y1749044D01*
X17894300Y1762760D01*
X18216372Y1878584D02*
G01*
X18148300Y1783079D01*
X18250661Y1783079D01*
X18216372Y1878584D02*
G01*
X18216372Y1735328D01*
D39*
X12630658Y10718292D02*
G01*
X12630658Y10552176D01*
X12547600Y10635234D02*
G01*
X12713970Y10635234D01*
X12774929Y10709147D02*
G01*
X12793218Y10718292D01*
X12820904Y10745978D01*
X12820904Y10552176D01*
X12992861Y10745978D02*
G01*
X12900406Y10745978D01*
X12891261Y10662920D01*
X12900406Y10672063D01*
X12928091Y10681462D01*
X12955777Y10681462D01*
X12983463Y10672063D01*
X13002006Y10653776D01*
X13011150Y10626089D01*
X13011150Y10607547D01*
X13002006Y10579862D01*
X12983463Y10561320D01*
X12955777Y10552176D01*
X12928091Y10552176D01*
X12900406Y10561320D01*
X12891261Y10570463D01*
X12881863Y10589005D01*
X13072109Y10745978D02*
G01*
X13146024Y10552176D01*
X13219938Y10745978D02*
G01*
X13146024Y10552176D01*
X13347700Y10647934D02*
G01*
X13514070Y10647934D01*
X9715500Y10098278D02*
G01*
X9715500Y9904476D01*
X9914890Y10052050D02*
G01*
X9905745Y10070592D01*
X9887204Y10089134D01*
X9868915Y10098278D01*
X9831831Y10098278D01*
X9813290Y10089134D01*
X9795002Y10070592D01*
X9785604Y10052050D01*
X9776459Y10024363D01*
X9776459Y9978389D01*
X9785604Y9950450D01*
X9795002Y9932162D01*
X9813290Y9913620D01*
X9831831Y9904476D01*
X9868915Y9904476D01*
X9887204Y9913620D01*
X9905745Y9932162D01*
X9914890Y9950450D01*
X9914890Y9978389D01*
X9868915Y9978389D02*
G01*
X9914890Y9978389D01*
X9975850Y10098278D02*
G01*
X9975850Y9904476D01*
X9975850Y10098278D02*
G01*
X10059161Y10098278D01*
X10086847Y10089134D01*
X10095991Y10079989D01*
X10105390Y10061447D01*
X10105390Y10042905D01*
X10095991Y10024363D01*
X10086847Y10015220D01*
X10059161Y10006076D01*
X9975850Y10006076D02*
G01*
X10059161Y10006076D01*
X10086847Y9996678D01*
X10095991Y9987534D01*
X10105390Y9968992D01*
X10105390Y9941305D01*
X10095991Y9922763D01*
X10086847Y9913620D01*
X10059161Y9904476D01*
X9975850Y9904476D01*
X10230865Y10098278D02*
G01*
X10230865Y9904476D01*
X10166350Y10098278D02*
G01*
X10295636Y10098278D01*
X10498836Y10098278D02*
G01*
X10498836Y9904476D01*
X10498836Y10098278D02*
G01*
X10581893Y10098278D01*
X10609579Y10089134D01*
X10618724Y10079989D01*
X10628122Y10061447D01*
X10628122Y10033762D01*
X10618724Y10015220D01*
X10609579Y10006076D01*
X10581893Y9996678D01*
X10498836Y9996678D01*
X10744454Y10098278D02*
G01*
X10725911Y10089134D01*
X10707370Y10070592D01*
X10698225Y10052050D01*
X10689081Y10024363D01*
X10689081Y9978389D01*
X10698225Y9950450D01*
X10707370Y9932162D01*
X10725911Y9913620D01*
X10744454Y9904476D01*
X10781284Y9904476D01*
X10799825Y9913620D01*
X10818368Y9932162D01*
X10827511Y9950450D01*
X10836909Y9978389D01*
X10836909Y10024363D01*
X10827511Y10052050D01*
X10818368Y10070592D01*
X10799825Y10089134D01*
X10781284Y10098278D01*
X10744454Y10098278D01*
X10897870Y10098278D02*
G01*
X10943843Y9904476D01*
X10990072Y10098278D02*
G01*
X10943843Y9904476D01*
X10990072Y10098278D02*
G01*
X11036300Y9904476D01*
X11082527Y10098278D02*
G01*
X11036300Y9904476D01*
X11143488Y10098278D02*
G01*
X11143488Y9904476D01*
X11143488Y10098278D02*
G01*
X11263629Y10098278D01*
X11143488Y10006076D02*
G01*
X11217402Y10006076D01*
X11143488Y9904476D02*
G01*
X11263629Y9904476D01*
X11324590Y10098278D02*
G01*
X11324590Y9904476D01*
X11324590Y10098278D02*
G01*
X11407647Y10098278D01*
X11435334Y10089134D01*
X11444477Y10079989D01*
X11453875Y10061447D01*
X11453875Y10042905D01*
X11444477Y10024363D01*
X11435334Y10015220D01*
X11407647Y10006076D01*
X11324590Y10006076D01*
X11389106Y10006076D02*
G01*
X11453875Y9904476D01*
X11657075Y10098278D02*
G01*
X11657075Y9904476D01*
X11657075Y10098278D02*
G01*
X11740134Y10098278D01*
X11767820Y10089134D01*
X11776963Y10079989D01*
X11786361Y10061447D01*
X11786361Y10042905D01*
X11776963Y10024363D01*
X11767820Y10015220D01*
X11740134Y10006076D01*
X11657075Y10006076D02*
G01*
X11740134Y10006076D01*
X11767820Y9996678D01*
X11776963Y9987534D01*
X11786361Y9968992D01*
X11786361Y9941305D01*
X11776963Y9922763D01*
X11767820Y9913620D01*
X11740134Y9904476D01*
X11657075Y9904476D01*
X11902693Y10098278D02*
G01*
X11884152Y10089134D01*
X11865609Y10070592D01*
X11856465Y10052050D01*
X11847322Y10024363D01*
X11847322Y9978389D01*
X11856465Y9950450D01*
X11865609Y9932162D01*
X11884152Y9913620D01*
X11902693Y9904476D01*
X11939524Y9904476D01*
X11958065Y9913620D01*
X11976608Y9932162D01*
X11985752Y9950450D01*
X11995150Y9978389D01*
X11995150Y10024363D01*
X11985752Y10052050D01*
X11976608Y10070592D01*
X11958065Y10089134D01*
X11939524Y10098278D01*
X11902693Y10098278D01*
X12129770Y10098278D02*
G01*
X12056109Y9904476D01*
X12129770Y10098278D02*
G01*
X12203684Y9904476D01*
X12083795Y9968992D02*
G01*
X12175997Y9968992D01*
X12264643Y10098278D02*
G01*
X12264643Y9904476D01*
X12264643Y10098278D02*
G01*
X12347956Y10098278D01*
X12375641Y10089134D01*
X12384786Y10079989D01*
X12393929Y10061447D01*
X12393929Y10042905D01*
X12384786Y10024363D01*
X12375641Y10015220D01*
X12347956Y10006076D01*
X12264643Y10006076D01*
X12329413Y10006076D02*
G01*
X12393929Y9904476D01*
X12454890Y10098278D02*
G01*
X12454890Y9904476D01*
X12454890Y10098278D02*
G01*
X12519659Y10098278D01*
X12547345Y10089134D01*
X12565888Y10070592D01*
X12575031Y10052050D01*
X12584429Y10024363D01*
X12584429Y9978389D01*
X12575031Y9950450D01*
X12565888Y9932162D01*
X12547345Y9913620D01*
X12519659Y9904476D01*
X12454890Y9904476D01*
X9994900Y2757678D02*
G01*
X9994900Y2563876D01*
X9994900Y2757678D02*
G01*
X10059670Y2757678D01*
X10087356Y2748534D01*
X10105643Y2729992D01*
X10115041Y2711450D01*
X10124186Y2683763D01*
X10124186Y2637789D01*
X10115041Y2609850D01*
X10105643Y2591562D01*
X10087356Y2573020D01*
X10059670Y2563876D01*
X9994900Y2563876D01*
X10185145Y2757678D02*
G01*
X10194290Y2748534D01*
X10203688Y2757678D01*
X10194290Y2767076D01*
X10185145Y2757678D01*
X10194290Y2693162D02*
G01*
X10194290Y2563876D01*
X10264647Y2693162D02*
G01*
X10264647Y2499105D01*
X10264647Y2665476D02*
G01*
X10283190Y2683763D01*
X10301477Y2693162D01*
X10329163Y2693162D01*
X10347706Y2683763D01*
X10366247Y2665476D01*
X10375391Y2637789D01*
X10375391Y2619247D01*
X10366247Y2591562D01*
X10347706Y2573020D01*
X10329163Y2563876D01*
X10301477Y2563876D01*
X10283190Y2573020D01*
X10264647Y2591562D01*
X10436352Y2757678D02*
G01*
X10436352Y2563876D01*
X10543540Y2693162D02*
G01*
X10524997Y2683763D01*
X10506709Y2665476D01*
X10497311Y2637789D01*
X10497311Y2619247D01*
X10506709Y2591562D01*
X10524997Y2573020D01*
X10543540Y2563876D01*
X10571225Y2563876D01*
X10589768Y2573020D01*
X10608309Y2591562D01*
X10617454Y2619247D01*
X10617454Y2637789D01*
X10608309Y2665476D01*
X10589768Y2683763D01*
X10571225Y2693162D01*
X10543540Y2693162D01*
X10678413Y2693162D02*
G01*
X10678413Y2563876D01*
X10678413Y2656078D02*
G01*
X10706100Y2683763D01*
X10724641Y2693162D01*
X10752327Y2693162D01*
X10770870Y2683763D01*
X10780013Y2656078D01*
X10780013Y2563876D01*
X10780013Y2656078D02*
G01*
X10807700Y2683763D01*
X10826241Y2693162D01*
X10853927Y2693162D01*
X10872470Y2683763D01*
X10881613Y2656078D01*
X10881613Y2563876D01*
X11044174Y2665476D02*
G01*
X11035029Y2683763D01*
X11007090Y2693162D01*
X10979404Y2693162D01*
X10951718Y2683763D01*
X10942574Y2665476D01*
X10951718Y2646934D01*
X10970259Y2637789D01*
X11016488Y2628392D01*
X11035029Y2619247D01*
X11044174Y2600705D01*
X11044174Y2591562D01*
X11035029Y2573020D01*
X11007090Y2563876D01*
X10979404Y2563876D01*
X10951718Y2573020D01*
X10942574Y2591562D01*
X11105134Y2757678D02*
G01*
X11105134Y2563876D01*
X11197590Y2693162D02*
G01*
X11105134Y2600705D01*
X11141963Y2637789D02*
G01*
X11206734Y2563876D01*
X11267693Y2757678D02*
G01*
X11276838Y2748534D01*
X11286236Y2757678D01*
X11276838Y2767076D01*
X11267693Y2757678D01*
X11276838Y2693162D02*
G01*
X11276838Y2563876D01*
X11489436Y2693162D02*
G01*
X11489436Y2563876D01*
X11489436Y2637789D02*
G01*
X11498579Y2665476D01*
X11517122Y2683763D01*
X11535409Y2693162D01*
X11563350Y2693162D01*
X11735054Y2693162D02*
G01*
X11735054Y2563876D01*
X11735054Y2665476D02*
G01*
X11716511Y2683763D01*
X11697970Y2693162D01*
X11670284Y2693162D01*
X11651995Y2683763D01*
X11633454Y2665476D01*
X11624309Y2637789D01*
X11624309Y2619247D01*
X11633454Y2591562D01*
X11651995Y2573020D01*
X11670284Y2563876D01*
X11697970Y2563876D01*
X11716511Y2573020D01*
X11735054Y2591562D01*
X11906758Y2757678D02*
G01*
X11906758Y2563876D01*
X11906758Y2665476D02*
G01*
X11888470Y2683763D01*
X11869927Y2693162D01*
X11842241Y2693162D01*
X11823700Y2683763D01*
X11805158Y2665476D01*
X11796013Y2637789D01*
X11796013Y2619247D01*
X11805158Y2591562D01*
X11823700Y2573020D01*
X11842241Y2563876D01*
X11869927Y2563876D01*
X11888470Y2573020D01*
X11906758Y2591562D01*
X10437113Y2325878D02*
G01*
X10363200Y2132076D01*
X10437113Y2325878D02*
G01*
X10511027Y2132076D01*
X10390886Y2196592D02*
G01*
X10483341Y2196592D01*
X10571988Y2325878D02*
G01*
X10571988Y2132076D01*
X10632947Y2205989D02*
G01*
X10743691Y2205989D01*
X10743691Y2224278D01*
X10734547Y2242820D01*
X10725150Y2251963D01*
X10706861Y2261362D01*
X10679175Y2261362D01*
X10660634Y2251963D01*
X10642091Y2233676D01*
X10632947Y2205989D01*
X10632947Y2187447D01*
X10642091Y2159762D01*
X10660634Y2141220D01*
X10679175Y2132076D01*
X10706861Y2132076D01*
X10725150Y2141220D01*
X10743691Y2159762D01*
X10804652Y2325878D02*
G01*
X10804652Y2132076D01*
X10897108Y2261362D02*
G01*
X10804652Y2168905D01*
X10841736Y2205989D02*
G01*
X10906252Y2132076D01*
X11068811Y2233676D02*
G01*
X11059668Y2251963D01*
X11031981Y2261362D01*
X11004295Y2261362D01*
X10976609Y2251963D01*
X10967211Y2233676D01*
X10976609Y2215134D01*
X10994897Y2205989D01*
X11041125Y2196592D01*
X11059668Y2187447D01*
X11068811Y2168905D01*
X11068811Y2159762D01*
X11059668Y2141220D01*
X11031981Y2132076D01*
X11004295Y2132076D01*
X10976609Y2141220D01*
X10967211Y2159762D01*
X11240770Y2261362D02*
G01*
X11240770Y2132076D01*
X11240770Y2233676D02*
G01*
X11222227Y2251963D01*
X11203686Y2261362D01*
X11176000Y2261362D01*
X11157458Y2251963D01*
X11139170Y2233676D01*
X11129772Y2205989D01*
X11129772Y2187447D01*
X11139170Y2159762D01*
X11157458Y2141220D01*
X11176000Y2132076D01*
X11203686Y2132076D01*
X11222227Y2141220D01*
X11240770Y2159762D01*
X11301729Y2261362D02*
G01*
X11301729Y2132076D01*
X11301729Y2224278D02*
G01*
X11329415Y2251963D01*
X11347704Y2261362D01*
X11375390Y2261362D01*
X11393931Y2251963D01*
X11403329Y2224278D01*
X11403329Y2132076D01*
X11575034Y2325878D02*
G01*
X11575034Y2132076D01*
X11575034Y2233676D02*
G01*
X11556491Y2251963D01*
X11537950Y2261362D01*
X11510263Y2261362D01*
X11491975Y2251963D01*
X11473434Y2233676D01*
X11464290Y2205989D01*
X11464290Y2187447D01*
X11473434Y2159762D01*
X11491975Y2141220D01*
X11510263Y2132076D01*
X11537950Y2132076D01*
X11556491Y2141220D01*
X11575034Y2159762D01*
X11746738Y2261362D02*
G01*
X11746738Y2132076D01*
X11746738Y2233676D02*
G01*
X11728450Y2251963D01*
X11709908Y2261362D01*
X11682222Y2261362D01*
X11663679Y2251963D01*
X11645138Y2233676D01*
X11635993Y2205989D01*
X11635993Y2187447D01*
X11645138Y2159762D01*
X11663679Y2141220D01*
X11682222Y2132076D01*
X11709908Y2132076D01*
X11728450Y2141220D01*
X11746738Y2159762D01*
X11807697Y2261362D02*
G01*
X11807697Y2132076D01*
X11807697Y2205989D02*
G01*
X11817095Y2233676D01*
X11835384Y2251963D01*
X11853925Y2261362D01*
X11881611Y2261362D01*
X12084811Y2325878D02*
G01*
X12084811Y2132076D01*
X12084811Y2325878D02*
G01*
X12167870Y2325878D01*
X12195809Y2316734D01*
X12204954Y2307589D01*
X12214097Y2289047D01*
X12214097Y2270505D01*
X12204954Y2251963D01*
X12195809Y2242820D01*
X12167870Y2233676D01*
X12084811Y2233676D02*
G01*
X12167870Y2233676D01*
X12195809Y2224278D01*
X12204954Y2215134D01*
X12214097Y2196592D01*
X12214097Y2168905D01*
X12204954Y2150363D01*
X12195809Y2141220D01*
X12167870Y2132076D01*
X12084811Y2132076D01*
X12275058Y2261362D02*
G01*
X12275058Y2132076D01*
X12275058Y2205989D02*
G01*
X12284456Y2233676D01*
X12302743Y2251963D01*
X12321286Y2261362D01*
X12348972Y2261362D01*
X12520929Y2261362D02*
G01*
X12520929Y2132076D01*
X12520929Y2233676D02*
G01*
X12502388Y2251963D01*
X12483845Y2261362D01*
X12456159Y2261362D01*
X12437618Y2251963D01*
X12419329Y2233676D01*
X12409931Y2205989D01*
X12409931Y2187447D01*
X12419329Y2159762D01*
X12437618Y2141220D01*
X12456159Y2132076D01*
X12483845Y2132076D01*
X12502388Y2141220D01*
X12520929Y2159762D01*
X12581890Y2325878D02*
G01*
X12581890Y2132076D01*
X12674091Y2261362D02*
G01*
X12581890Y2168905D01*
X12618720Y2205989D02*
G01*
X12683490Y2132076D01*
X12790424Y2261362D02*
G01*
X12772136Y2251963D01*
X12753593Y2233676D01*
X12744450Y2205989D01*
X12744450Y2187447D01*
X12753593Y2159762D01*
X12772136Y2141220D01*
X12790424Y2132076D01*
X12818109Y2132076D01*
X12836652Y2141220D01*
X12855193Y2159762D01*
X12864338Y2187447D01*
X12864338Y2205989D01*
X12855193Y2233676D01*
X12836652Y2251963D01*
X12818109Y2261362D01*
X12790424Y2261362D01*
X13036295Y2233676D02*
G01*
X13017754Y2251963D01*
X12999211Y2261362D01*
X12971525Y2261362D01*
X12952984Y2251963D01*
X12934695Y2233676D01*
X12925297Y2205989D01*
X12925297Y2187447D01*
X12934695Y2159762D01*
X12952984Y2141220D01*
X12971525Y2132076D01*
X12999211Y2132076D01*
X13017754Y2141220D01*
X13036295Y2159762D01*
X13097256Y2205989D02*
G01*
X13208000Y2205989D01*
X13208000Y2224278D01*
X13198856Y2242820D01*
X13189458Y2251963D01*
X13171170Y2261362D01*
X13143229Y2261362D01*
X13124941Y2251963D01*
X13106400Y2233676D01*
X13097256Y2205989D01*
X13097256Y2187447D01*
X13106400Y2159762D01*
X13124941Y2141220D01*
X13143229Y2132076D01*
X13171170Y2132076D01*
X13189458Y2141220D01*
X13208000Y2159762D01*
X13268959Y2261362D02*
G01*
X13324331Y2132076D01*
X13379704Y2261362D02*
G01*
X13324331Y2132076D01*
X13440663Y2325878D02*
G01*
X13450061Y2316734D01*
X13459206Y2325878D01*
X13450061Y2335276D01*
X13440663Y2325878D01*
X13450061Y2261362D02*
G01*
X13450061Y2132076D01*
X13630909Y2233676D02*
G01*
X13612622Y2251963D01*
X13594079Y2261362D01*
X13566393Y2261362D01*
X13547852Y2251963D01*
X13529309Y2233676D01*
X13520166Y2205989D01*
X13520166Y2187447D01*
X13529309Y2159762D01*
X13547852Y2141220D01*
X13566393Y2132076D01*
X13594079Y2132076D01*
X13612622Y2141220D01*
X13630909Y2159762D01*
X13834109Y2289047D02*
G01*
X13852652Y2298192D01*
X13880338Y2325878D01*
X13880338Y2132076D01*
X13950695Y2279650D02*
G01*
X13950695Y2289047D01*
X13959840Y2307589D01*
X13968984Y2316734D01*
X13987525Y2325878D01*
X14024609Y2325878D01*
X14042897Y2316734D01*
X14052295Y2307589D01*
X14061440Y2289047D01*
X14061440Y2270505D01*
X14052295Y2251963D01*
X14033754Y2224278D01*
X13941297Y2132076D01*
X14070584Y2132076D01*
X14140941Y2279650D02*
G01*
X14140941Y2289047D01*
X14150086Y2307589D01*
X14159229Y2316734D01*
X14177772Y2325878D01*
X14214856Y2325878D01*
X14233143Y2316734D01*
X14242541Y2307589D01*
X14251686Y2289047D01*
X14251686Y2270505D01*
X14242541Y2251963D01*
X14224000Y2224278D01*
X14131543Y2132076D01*
X14260829Y2132076D01*
X14377416Y2325878D02*
G01*
X14349729Y2316734D01*
X14331188Y2289047D01*
X14321790Y2242820D01*
X14321790Y2215134D01*
X14331188Y2168905D01*
X14349729Y2141220D01*
X14377416Y2132076D01*
X14395704Y2132076D01*
X14423390Y2141220D01*
X14441931Y2168905D01*
X14451329Y2215134D01*
X14451329Y2242820D01*
X14441931Y2289047D01*
X14423390Y2316734D01*
X14395704Y2325878D01*
X14377416Y2325878D01*
X14678406Y2362962D02*
G01*
X14512290Y2067305D01*
X14739366Y2289047D02*
G01*
X14757908Y2298192D01*
X14785593Y2325878D01*
X14785593Y2132076D01*
X14975840Y2325878D02*
G01*
X14883384Y2132076D01*
X14846554Y2325878D02*
G01*
X14975840Y2325878D01*
D40*
X18928588Y2018284D02*
G01*
X18860516Y2018284D01*
X18853658Y1956815D01*
X18860516Y1963673D01*
X18880836Y1970531D01*
X18901409Y1970531D01*
X18921729Y1963673D01*
X18935445Y1949957D01*
X18942304Y1929637D01*
X18942304Y1915921D01*
X18935445Y1895602D01*
X18921729Y1881886D01*
X18901409Y1875028D01*
X18880836Y1875028D01*
X18860516Y1881886D01*
X18853658Y1888744D01*
X18846800Y1902460D01*
X18987261Y1936495D02*
G01*
X19109943Y1936495D01*
X19154902Y2018284D02*
G01*
X19154902Y1875028D01*
X19154902Y2018284D02*
G01*
X19202654Y2018284D01*
X19223227Y2011426D01*
X19236690Y1997710D01*
X19243548Y1984247D01*
X19250406Y1963673D01*
X19250406Y1929637D01*
X19243548Y1909063D01*
X19236690Y1895602D01*
X19223227Y1881886D01*
X19202654Y1875028D01*
X19154902Y1875028D01*
X19397725Y1984247D02*
G01*
X19390868Y1997710D01*
X19377152Y2011426D01*
X19363690Y2018284D01*
X19336258Y2018284D01*
X19322795Y2011426D01*
X19309079Y1997710D01*
X19302222Y1984247D01*
X19295363Y1963673D01*
X19295363Y1929637D01*
X19302222Y1909063D01*
X19309079Y1895602D01*
X19322795Y1881886D01*
X19336258Y1875028D01*
X19363690Y1875028D01*
X19377152Y1881886D01*
X19390868Y1895602D01*
X19397725Y1909063D01*
X19397725Y1929637D01*
X19363690Y1929637D02*
G01*
X19397725Y1929637D01*
X19442684Y2018284D02*
G01*
X19442684Y1875028D01*
X19442684Y2018284D02*
G01*
X19538188Y1875028D01*
X19538188Y2018284D02*
G01*
X19538188Y1875028D01*
X19583145Y2018284D02*
G01*
X19583145Y1875028D01*
X19583145Y2018284D02*
G01*
X19630898Y2018284D01*
X19651472Y2011426D01*
X19664934Y1997710D01*
X19671791Y1984247D01*
X19678650Y1963673D01*
X19678650Y1929637D01*
X19671791Y1909063D01*
X19664934Y1895602D01*
X19651472Y1881886D01*
X19630898Y1875028D01*
X19583145Y1875028D01*
X18471388Y1878584D02*
G01*
X18403316Y1878584D01*
X18396458Y1817115D01*
X18403316Y1823973D01*
X18423636Y1830831D01*
X18444209Y1830831D01*
X18464529Y1823973D01*
X18478245Y1810257D01*
X18485104Y1789937D01*
X18485104Y1776221D01*
X18478245Y1755902D01*
X18464529Y1742186D01*
X18444209Y1735328D01*
X18423636Y1735328D01*
X18403316Y1742186D01*
X18396458Y1749044D01*
X18389600Y1762760D01*
D37*
X11672315Y6889750D02*
G01*
X11563350Y6889750D01*
X11672315Y6889750D02*
G01*
X11672315Y6853428D01*
X11667236Y6837679D01*
X11656822Y6827520D01*
X11646408Y6822186D01*
X11630659Y6817105D01*
X11604752Y6817105D01*
X11589258Y6822186D01*
X11578843Y6827520D01*
X11568429Y6837679D01*
X11563350Y6853428D01*
X11563350Y6889750D01*
X11651488Y6782815D02*
G01*
X11656822Y6772402D01*
X11672315Y6756654D01*
X11563350Y6756654D01*
X11672315Y6691376D02*
G01*
X11667236Y6706870D01*
X11651488Y6717284D01*
X11625579Y6722363D01*
X11610086Y6722363D01*
X11583924Y6717284D01*
X11568429Y6706870D01*
X11563350Y6691376D01*
X11563350Y6680962D01*
X11568429Y6665213D01*
X11583924Y6654800D01*
X11610086Y6649720D01*
X11625579Y6649720D01*
X11651488Y6654800D01*
X11667236Y6665213D01*
X11672315Y6680962D01*
X11672315Y6691376D01*
X15404084Y6864350D02*
G01*
X15513050Y6864350D01*
X15404084Y6864350D02*
G01*
X15404084Y6900671D01*
X15409163Y6916420D01*
X15419577Y6926579D01*
X15429991Y6931913D01*
X15445740Y6936994D01*
X15471647Y6936994D01*
X15487141Y6931913D01*
X15497556Y6926579D01*
X15507970Y6916420D01*
X15513050Y6900671D01*
X15513050Y6864350D01*
X15424911Y6971284D02*
G01*
X15419577Y6981697D01*
X15404084Y6997445D01*
X15513050Y6997445D01*
X15424911Y7031736D02*
G01*
X15419577Y7042150D01*
X15404084Y7057644D01*
X15513050Y7057644D01*
X20191984Y6800850D02*
G01*
X20300950Y6800850D01*
X20191984Y6800850D02*
G01*
X20191984Y6837171D01*
X20197063Y6852920D01*
X20207477Y6863079D01*
X20217891Y6868413D01*
X20233640Y6873494D01*
X20259548Y6873494D01*
X20275041Y6868413D01*
X20285456Y6863079D01*
X20295870Y6852920D01*
X20300950Y6837171D01*
X20300950Y6800850D01*
X20212811Y6907784D02*
G01*
X20207477Y6918197D01*
X20191984Y6933945D01*
X20300950Y6933945D01*
X20217891Y6973315D02*
G01*
X20212811Y6973315D01*
X20202398Y6978650D01*
X20197063Y6983729D01*
X20191984Y6994144D01*
X20191984Y7014971D01*
X20197063Y7025386D01*
X20202398Y7030465D01*
X20212811Y7035800D01*
X20223225Y7035800D01*
X20233640Y7030465D01*
X20249134Y7020052D01*
X20300950Y6968236D01*
X20300950Y7040879D01*
X13118084Y6864350D02*
G01*
X13227050Y6864350D01*
X13118084Y6864350D02*
G01*
X13118084Y6900671D01*
X13123163Y6916420D01*
X13133577Y6926579D01*
X13143991Y6931913D01*
X13159740Y6936994D01*
X13185647Y6936994D01*
X13201141Y6931913D01*
X13211556Y6926579D01*
X13221970Y6916420D01*
X13227050Y6900671D01*
X13227050Y6864350D01*
X13138911Y6971284D02*
G01*
X13133577Y6981697D01*
X13118084Y6997445D01*
X13227050Y6997445D01*
X13118084Y7042150D02*
G01*
X13118084Y7099300D01*
X13159740Y7068058D01*
X13159740Y7083552D01*
X13164820Y7093965D01*
X13169900Y7099300D01*
X13185647Y7104379D01*
X13196061Y7104379D01*
X13211556Y7099300D01*
X13221970Y7088886D01*
X13227050Y7073137D01*
X13227050Y7057644D01*
X13221970Y7042150D01*
X13216890Y7036815D01*
X13206475Y7031736D01*
X17753584Y6838950D02*
G01*
X17862550Y6838950D01*
X17753584Y6838950D02*
G01*
X17753584Y6875271D01*
X17758663Y6891020D01*
X17769077Y6901179D01*
X17779491Y6906513D01*
X17795240Y6911594D01*
X17821148Y6911594D01*
X17836641Y6906513D01*
X17847056Y6901179D01*
X17857470Y6891020D01*
X17862550Y6875271D01*
X17862550Y6838950D01*
X17774411Y6945884D02*
G01*
X17769077Y6956297D01*
X17753584Y6972045D01*
X17862550Y6972045D01*
X17753584Y7058152D02*
G01*
X17826227Y7006336D01*
X17826227Y7084060D01*
X17753584Y7058152D02*
G01*
X17862550Y7058152D01*
X22477984Y6775450D02*
G01*
X22586950Y6775450D01*
X22477984Y6775450D02*
G01*
X22477984Y6811771D01*
X22483063Y6827520D01*
X22493477Y6837679D01*
X22503891Y6843013D01*
X22519640Y6848094D01*
X22545548Y6848094D01*
X22561041Y6843013D01*
X22571456Y6837679D01*
X22581870Y6827520D01*
X22586950Y6811771D01*
X22586950Y6775450D01*
X22498811Y6882384D02*
G01*
X22493477Y6892797D01*
X22477984Y6908545D01*
X22586950Y6908545D01*
X22477984Y7005065D02*
G01*
X22477984Y6953250D01*
X22524720Y6947915D01*
X22519640Y6953250D01*
X22514306Y6968744D01*
X22514306Y6984237D01*
X22519640Y6999986D01*
X22529800Y7010400D01*
X22545548Y7015479D01*
X22555961Y7015479D01*
X22571456Y7010400D01*
X22581870Y6999986D01*
X22586950Y6984237D01*
X22586950Y6968744D01*
X22581870Y6953250D01*
X22576790Y6947915D01*
X22566375Y6942836D01*
X14046200Y3833418D02*
G01*
X14046200Y3755440D01*
X14051279Y3739946D01*
X14061693Y3729532D01*
X14077441Y3724452D01*
X14087856Y3724452D01*
X14103350Y3729532D01*
X14113763Y3739946D01*
X14118843Y3755440D01*
X14118843Y3833418D01*
X14153134Y3812590D02*
G01*
X14163547Y3817924D01*
X14179295Y3833418D01*
X14179295Y3724452D01*
X14744700Y3833418D02*
G01*
X14744700Y3755440D01*
X14749779Y3739946D01*
X14760193Y3729532D01*
X14775941Y3724452D01*
X14786356Y3724452D01*
X14801850Y3729532D01*
X14812263Y3739946D01*
X14817343Y3755440D01*
X14817343Y3833418D01*
X14856968Y3807510D02*
G01*
X14856968Y3812590D01*
X14862047Y3823004D01*
X14867381Y3828338D01*
X14877795Y3833418D01*
X14898370Y3833418D01*
X14908784Y3828338D01*
X14914118Y3823004D01*
X14919197Y3812590D01*
X14919197Y3802176D01*
X14914118Y3791762D01*
X14903704Y3776268D01*
X14851634Y3724452D01*
X14924531Y3724452D01*
X15443200Y3833418D02*
G01*
X15443200Y3755440D01*
X15448279Y3739946D01*
X15458693Y3729532D01*
X15474441Y3724452D01*
X15484856Y3724452D01*
X15500350Y3729532D01*
X15510763Y3739946D01*
X15515843Y3755440D01*
X15515843Y3833418D01*
X15560547Y3833418D02*
G01*
X15617697Y3833418D01*
X15586709Y3791762D01*
X15602204Y3791762D01*
X15612618Y3786682D01*
X15617697Y3781602D01*
X15623031Y3765854D01*
X15623031Y3755440D01*
X15617697Y3739946D01*
X15607284Y3729532D01*
X15591790Y3724452D01*
X15576295Y3724452D01*
X15560547Y3729532D01*
X15555468Y3734612D01*
X15550134Y3745026D01*
X16129000Y3846118D02*
G01*
X16129000Y3768140D01*
X16134079Y3752646D01*
X16144493Y3742232D01*
X16160241Y3737152D01*
X16170656Y3737152D01*
X16186150Y3742232D01*
X16196563Y3752646D01*
X16201643Y3768140D01*
X16201643Y3846118D01*
X16288004Y3846118D02*
G01*
X16235934Y3773474D01*
X16313911Y3773474D01*
X16288004Y3846118D02*
G01*
X16288004Y3737152D01*
X12894805Y2411984D02*
G01*
X12894805Y2520950D01*
X12894805Y2411984D02*
G01*
X12848069Y2411984D01*
X12832575Y2417063D01*
X12827241Y2422397D01*
X12822161Y2432812D01*
X12822161Y2443226D01*
X12827241Y2453639D01*
X12832575Y2458720D01*
X12848069Y2463800D01*
X12894805Y2463800D01*
X12858483Y2463800D02*
G01*
X12822161Y2520950D01*
X12725387Y2411984D02*
G01*
X12777457Y2411984D01*
X12782537Y2458720D01*
X12777457Y2453639D01*
X12761709Y2448305D01*
X12746215Y2448305D01*
X12730721Y2453639D01*
X12720307Y2463800D01*
X12714973Y2479547D01*
X12714973Y2489962D01*
X12720307Y2505455D01*
X12730721Y2515870D01*
X12746215Y2520950D01*
X12761709Y2520950D01*
X12777457Y2515870D01*
X12782537Y2510789D01*
X12787871Y2500376D01*
X12894805Y2843784D02*
G01*
X12894805Y2952750D01*
X12894805Y2843784D02*
G01*
X12848069Y2843784D01*
X12832575Y2848863D01*
X12827241Y2854197D01*
X12822161Y2864612D01*
X12822161Y2875026D01*
X12827241Y2885439D01*
X12832575Y2890520D01*
X12848069Y2895600D01*
X12894805Y2895600D01*
X12858483Y2895600D02*
G01*
X12822161Y2952750D01*
X12725387Y2859278D02*
G01*
X12730721Y2848863D01*
X12746215Y2843784D01*
X12756629Y2843784D01*
X12772123Y2848863D01*
X12782537Y2864612D01*
X12787871Y2890520D01*
X12787871Y2916428D01*
X12782537Y2937255D01*
X12772123Y2947670D01*
X12756629Y2952750D01*
X12751295Y2952750D01*
X12735801Y2947670D01*
X12725387Y2937255D01*
X12720307Y2921762D01*
X12720307Y2916428D01*
X12725387Y2900934D01*
X12735801Y2890520D01*
X12751295Y2885439D01*
X12756629Y2885439D01*
X12772123Y2890520D01*
X12782537Y2900934D01*
X12787871Y2916428D01*
X12907505Y3250184D02*
G01*
X12907505Y3359150D01*
X12907505Y3250184D02*
G01*
X12860769Y3250184D01*
X12845275Y3255263D01*
X12839941Y3260597D01*
X12834861Y3271012D01*
X12834861Y3281426D01*
X12839941Y3291839D01*
X12845275Y3296920D01*
X12860769Y3302000D01*
X12907505Y3302000D01*
X12871183Y3302000D02*
G01*
X12834861Y3359150D01*
X12727673Y3250184D02*
G01*
X12779743Y3359150D01*
X12800571Y3250184D02*
G01*
X12727673Y3250184D01*
X12954012Y4024884D02*
G01*
X12954012Y4133850D01*
X12954012Y4024884D02*
G01*
X12907276Y4024884D01*
X12891782Y4029963D01*
X12886448Y4035297D01*
X12881368Y4045712D01*
X12881368Y4056126D01*
X12886448Y4066539D01*
X12891782Y4071620D01*
X12907276Y4076700D01*
X12954012Y4076700D01*
X12917690Y4076700D02*
G01*
X12881368Y4133850D01*
X12820916Y4024884D02*
G01*
X12836664Y4029963D01*
X12841744Y4040378D01*
X12841744Y4050792D01*
X12836664Y4061205D01*
X12826250Y4066539D01*
X12805422Y4071620D01*
X12789928Y4076700D01*
X12779514Y4087113D01*
X12774180Y4097528D01*
X12774180Y4113276D01*
X12779514Y4123689D01*
X12784594Y4128770D01*
X12800342Y4133850D01*
X12820916Y4133850D01*
X12836664Y4128770D01*
X12841744Y4123689D01*
X12847078Y4113276D01*
X12847078Y4097528D01*
X12841744Y4087113D01*
X12831330Y4076700D01*
X12815836Y4071620D01*
X12795008Y4066539D01*
X12784594Y4061205D01*
X12779514Y4050792D01*
X12779514Y4040378D01*
X12784594Y4029963D01*
X12800342Y4024884D01*
X12820916Y4024884D01*
X10705084Y6929894D02*
G01*
X10814050Y6929894D01*
X10705084Y6929894D02*
G01*
X10705084Y6976630D01*
X10710163Y6992124D01*
X10715497Y6997458D01*
X10725911Y7002538D01*
X10736325Y7002538D01*
X10746740Y6997458D01*
X10751820Y6992124D01*
X10756900Y6976630D01*
X10756900Y6929894D01*
X10756900Y6966216D02*
G01*
X10814050Y7002538D01*
X10730991Y7042162D02*
G01*
X10725911Y7042162D01*
X10715497Y7047242D01*
X10710163Y7052576D01*
X10705084Y7062990D01*
X10705084Y7083564D01*
X10710163Y7093978D01*
X10715497Y7099312D01*
X10725911Y7104392D01*
X10736325Y7104392D01*
X10746740Y7099312D01*
X10762234Y7088898D01*
X10814050Y7036828D01*
X10814050Y7109726D01*
X10725911Y7144016D02*
G01*
X10720577Y7154430D01*
X10705084Y7169924D01*
X10814050Y7169924D01*
X15023084Y6904494D02*
G01*
X15132050Y6904494D01*
X15023084Y6904494D02*
G01*
X15023084Y6951230D01*
X15028163Y6966724D01*
X15033497Y6972058D01*
X15043911Y6977138D01*
X15054325Y6977138D01*
X15064740Y6972058D01*
X15069820Y6966724D01*
X15074900Y6951230D01*
X15074900Y6904494D01*
X15074900Y6940816D02*
G01*
X15132050Y6977138D01*
X15048991Y7016762D02*
G01*
X15043911Y7016762D01*
X15033497Y7021842D01*
X15028163Y7027176D01*
X15023084Y7037590D01*
X15023084Y7058164D01*
X15028163Y7068578D01*
X15033497Y7073912D01*
X15043911Y7078992D01*
X15054325Y7078992D01*
X15064740Y7073912D01*
X15080234Y7063498D01*
X15132050Y7011428D01*
X15132050Y7084326D01*
X15048991Y7123696D02*
G01*
X15043911Y7123696D01*
X15033497Y7129030D01*
X15028163Y7134110D01*
X15023084Y7144524D01*
X15023084Y7165352D01*
X15028163Y7175766D01*
X15033497Y7180846D01*
X15043911Y7186180D01*
X15054325Y7186180D01*
X15064740Y7180846D01*
X15080234Y7170432D01*
X15132050Y7118616D01*
X15132050Y7191260D01*
X19798284Y6866394D02*
G01*
X19907250Y6866394D01*
X19798284Y6866394D02*
G01*
X19798284Y6913130D01*
X19803363Y6928624D01*
X19808698Y6933958D01*
X19819111Y6939038D01*
X19829525Y6939038D01*
X19839940Y6933958D01*
X19845020Y6928624D01*
X19850100Y6913130D01*
X19850100Y6866394D01*
X19850100Y6902716D02*
G01*
X19907250Y6939038D01*
X19824191Y6978662D02*
G01*
X19819111Y6978662D01*
X19808698Y6983742D01*
X19803363Y6989076D01*
X19798284Y6999490D01*
X19798284Y7020064D01*
X19803363Y7030478D01*
X19808698Y7035812D01*
X19819111Y7040892D01*
X19829525Y7040892D01*
X19839940Y7035812D01*
X19855434Y7025398D01*
X19907250Y6973328D01*
X19907250Y7046226D01*
X19798284Y7090930D02*
G01*
X19798284Y7148080D01*
X19839940Y7116838D01*
X19839940Y7132332D01*
X19845020Y7142746D01*
X19850100Y7148080D01*
X19865848Y7153160D01*
X19876261Y7153160D01*
X19891756Y7148080D01*
X19902170Y7137666D01*
X19907250Y7121918D01*
X19907250Y7106424D01*
X19902170Y7090930D01*
X19897090Y7085596D01*
X19886675Y7080516D01*
X12787884Y6917194D02*
G01*
X12896850Y6917194D01*
X12787884Y6917194D02*
G01*
X12787884Y6963930D01*
X12792963Y6979424D01*
X12798297Y6984758D01*
X12808711Y6989838D01*
X12819125Y6989838D01*
X12829540Y6984758D01*
X12834620Y6979424D01*
X12839700Y6963930D01*
X12839700Y6917194D01*
X12839700Y6953516D02*
G01*
X12896850Y6989838D01*
X12813791Y7029462D02*
G01*
X12808711Y7029462D01*
X12798297Y7034542D01*
X12792963Y7039876D01*
X12787884Y7050290D01*
X12787884Y7070864D01*
X12792963Y7081278D01*
X12798297Y7086612D01*
X12808711Y7091692D01*
X12819125Y7091692D01*
X12829540Y7086612D01*
X12845034Y7076198D01*
X12896850Y7024128D01*
X12896850Y7097026D01*
X12787884Y7183132D02*
G01*
X12860527Y7131316D01*
X12860527Y7209294D01*
X12787884Y7183132D02*
G01*
X12896850Y7183132D01*
X17321784Y6866394D02*
G01*
X17430750Y6866394D01*
X17321784Y6866394D02*
G01*
X17321784Y6913130D01*
X17326863Y6928624D01*
X17332198Y6933958D01*
X17342611Y6939038D01*
X17353025Y6939038D01*
X17363440Y6933958D01*
X17368520Y6928624D01*
X17373600Y6913130D01*
X17373600Y6866394D01*
X17373600Y6902716D02*
G01*
X17430750Y6939038D01*
X17347691Y6978662D02*
G01*
X17342611Y6978662D01*
X17332198Y6983742D01*
X17326863Y6989076D01*
X17321784Y6999490D01*
X17321784Y7020064D01*
X17326863Y7030478D01*
X17332198Y7035812D01*
X17342611Y7040892D01*
X17353025Y7040892D01*
X17363440Y7035812D01*
X17378934Y7025398D01*
X17430750Y6973328D01*
X17430750Y7046226D01*
X17321784Y7142746D02*
G01*
X17321784Y7090930D01*
X17368520Y7085596D01*
X17363440Y7090930D01*
X17358106Y7106424D01*
X17358106Y7121918D01*
X17363440Y7137666D01*
X17373600Y7148080D01*
X17389348Y7153160D01*
X17399761Y7153160D01*
X17415256Y7148080D01*
X17425670Y7137666D01*
X17430750Y7121918D01*
X17430750Y7106424D01*
X17425670Y7090930D01*
X17420590Y7085596D01*
X17410175Y7080516D01*
X22135084Y6802894D02*
G01*
X22244050Y6802894D01*
X22135084Y6802894D02*
G01*
X22135084Y6849630D01*
X22140163Y6865124D01*
X22145498Y6870458D01*
X22155911Y6875538D01*
X22166325Y6875538D01*
X22176740Y6870458D01*
X22181820Y6865124D01*
X22186900Y6849630D01*
X22186900Y6802894D01*
X22186900Y6839216D02*
G01*
X22244050Y6875538D01*
X22160991Y6915162D02*
G01*
X22155911Y6915162D01*
X22145498Y6920242D01*
X22140163Y6925576D01*
X22135084Y6935990D01*
X22135084Y6956564D01*
X22140163Y6966978D01*
X22145498Y6972312D01*
X22155911Y6977392D01*
X22166325Y6977392D01*
X22176740Y6972312D01*
X22192234Y6961898D01*
X22244050Y6909828D01*
X22244050Y6982726D01*
X22150577Y7079246D02*
G01*
X22140163Y7074166D01*
X22135084Y7058418D01*
X22135084Y7048004D01*
X22140163Y7032510D01*
X22155911Y7022096D01*
X22181820Y7017016D01*
X22207727Y7017016D01*
X22228556Y7022096D01*
X22238970Y7032510D01*
X22244050Y7048004D01*
X22244050Y7053338D01*
X22238970Y7068832D01*
X22228556Y7079246D01*
X22213061Y7084580D01*
X22207727Y7084580D01*
X22192234Y7079246D01*
X22181820Y7068832D01*
X22176740Y7053338D01*
X22176740Y7048004D01*
X22181820Y7032510D01*
X22192234Y7022096D01*
X22207727Y7017016D01*
X11752478Y5626607D02*
G01*
X11747144Y5637021D01*
X11736730Y5647436D01*
X11726570Y5652515D01*
X11705742Y5652515D01*
X11695328Y5647436D01*
X11684914Y5637021D01*
X11679580Y5626607D01*
X11674500Y5610860D01*
X11674500Y5584952D01*
X11679580Y5569457D01*
X11684914Y5559044D01*
X11695328Y5548629D01*
X11705742Y5543550D01*
X11726570Y5543550D01*
X11736730Y5548629D01*
X11747144Y5559044D01*
X11752478Y5569457D01*
X11786768Y5631687D02*
G01*
X11797182Y5637021D01*
X11812676Y5652515D01*
X11812676Y5543550D01*
X15587878Y5728207D02*
G01*
X15582544Y5738621D01*
X15572130Y5749036D01*
X15561970Y5754115D01*
X15541142Y5754115D01*
X15530728Y5749036D01*
X15520314Y5738621D01*
X15514980Y5728207D01*
X15509900Y5712460D01*
X15509900Y5686552D01*
X15514980Y5671057D01*
X15520314Y5660644D01*
X15530728Y5650229D01*
X15541142Y5645150D01*
X15561970Y5645150D01*
X15572130Y5650229D01*
X15582544Y5660644D01*
X15587878Y5671057D01*
X15627248Y5728207D02*
G01*
X15627248Y5733287D01*
X15632582Y5743702D01*
X15637662Y5749036D01*
X15648076Y5754115D01*
X15668904Y5754115D01*
X15679318Y5749036D01*
X15684398Y5743702D01*
X15689732Y5733287D01*
X15689732Y5722873D01*
X15684398Y5712460D01*
X15673984Y5696965D01*
X15622168Y5645150D01*
X15694812Y5645150D01*
X19169278Y5740907D02*
G01*
X19163944Y5751321D01*
X19153530Y5761736D01*
X19143370Y5766815D01*
X19122542Y5766815D01*
X19112128Y5761736D01*
X19101714Y5751321D01*
X19096380Y5740907D01*
X19091300Y5725160D01*
X19091300Y5699252D01*
X19096380Y5683757D01*
X19101714Y5673344D01*
X19112128Y5662929D01*
X19122542Y5657850D01*
X19143370Y5657850D01*
X19153530Y5662929D01*
X19163944Y5673344D01*
X19169278Y5683757D01*
X19213982Y5766815D02*
G01*
X19271132Y5766815D01*
X19239890Y5725160D01*
X19255384Y5725160D01*
X19265798Y5720079D01*
X19271132Y5715000D01*
X19276212Y5699252D01*
X19276212Y5688837D01*
X19271132Y5673344D01*
X19260718Y5662929D01*
X19244970Y5657850D01*
X19229476Y5657850D01*
X19213982Y5662929D01*
X19208648Y5668010D01*
X19203568Y5678423D01*
X11641581Y4538471D02*
G01*
X11646915Y4528057D01*
X11657329Y4517644D01*
X11667490Y4512563D01*
X11688318Y4512563D01*
X11698731Y4517644D01*
X11709145Y4528057D01*
X11714479Y4538471D01*
X11719559Y4554220D01*
X11719559Y4580128D01*
X11714479Y4595621D01*
X11709145Y4606036D01*
X11698731Y4616450D01*
X11688318Y4621529D01*
X11667490Y4621529D01*
X11657329Y4616450D01*
X11646915Y4606036D01*
X11641581Y4595621D01*
X11555475Y4512563D02*
G01*
X11607291Y4585207D01*
X11529313Y4585207D01*
X11555475Y4512563D02*
G01*
X11555475Y4621529D01*
X15489681Y4576571D02*
G01*
X15495016Y4566157D01*
X15505429Y4555744D01*
X15515590Y4550663D01*
X15536418Y4550663D01*
X15546831Y4555744D01*
X15557245Y4566157D01*
X15562579Y4576571D01*
X15567659Y4592320D01*
X15567659Y4618228D01*
X15562579Y4633721D01*
X15557245Y4644136D01*
X15546831Y4654550D01*
X15536418Y4659629D01*
X15515590Y4659629D01*
X15505429Y4654550D01*
X15495016Y4644136D01*
X15489681Y4633721D01*
X15393161Y4550663D02*
G01*
X15444977Y4550663D01*
X15450311Y4597400D01*
X15444977Y4592320D01*
X15429484Y4586986D01*
X15413990Y4586986D01*
X15398241Y4592320D01*
X15387827Y4602479D01*
X15382747Y4618228D01*
X15382747Y4628642D01*
X15387827Y4644136D01*
X15398241Y4654550D01*
X15413990Y4659629D01*
X15429484Y4659629D01*
X15444977Y4654550D01*
X15450311Y4649470D01*
X15455391Y4639055D01*
X19020281Y4601971D02*
G01*
X19025616Y4591557D01*
X19036029Y4581144D01*
X19046190Y4576063D01*
X19067018Y4576063D01*
X19077431Y4581144D01*
X19087845Y4591557D01*
X19093179Y4601971D01*
X19098259Y4617720D01*
X19098259Y4643628D01*
X19093179Y4659121D01*
X19087845Y4669536D01*
X19077431Y4679950D01*
X19067018Y4685029D01*
X19046190Y4685029D01*
X19036029Y4679950D01*
X19025616Y4669536D01*
X19020281Y4659121D01*
X18923761Y4591557D02*
G01*
X18928841Y4581144D01*
X18944590Y4576063D01*
X18954750Y4576063D01*
X18970498Y4581144D01*
X18980911Y4596892D01*
X18985991Y4622800D01*
X18985991Y4648707D01*
X18980911Y4669536D01*
X18970498Y4679950D01*
X18954750Y4685029D01*
X18949670Y4685029D01*
X18934175Y4679950D01*
X18923761Y4669536D01*
X18918427Y4654042D01*
X18918427Y4648707D01*
X18923761Y4633213D01*
X18934175Y4622800D01*
X18949670Y4617720D01*
X18954750Y4617720D01*
X18970498Y4622800D01*
X18980911Y4633213D01*
X18985991Y4648707D01*
X12374118Y4389628D02*
G01*
X12368784Y4400042D01*
X12358370Y4410455D01*
X12348209Y4415536D01*
X12327381Y4415536D01*
X12316968Y4410455D01*
X12306554Y4400042D01*
X12301220Y4389628D01*
X12296140Y4373879D01*
X12296140Y4347971D01*
X12301220Y4332478D01*
X12306554Y4322063D01*
X12316968Y4311650D01*
X12327381Y4306570D01*
X12348209Y4306570D01*
X12358370Y4311650D01*
X12368784Y4322063D01*
X12374118Y4332478D01*
X12481052Y4415536D02*
G01*
X12429236Y4306570D01*
X12408408Y4415536D02*
G01*
X12481052Y4415536D01*
X16298418Y4491228D02*
G01*
X16293084Y4501642D01*
X16282670Y4512055D01*
X16272509Y4517136D01*
X16251681Y4517136D01*
X16241268Y4512055D01*
X16230854Y4501642D01*
X16225520Y4491228D01*
X16220440Y4475479D01*
X16220440Y4449571D01*
X16225520Y4434078D01*
X16230854Y4423663D01*
X16241268Y4413250D01*
X16251681Y4408170D01*
X16272509Y4408170D01*
X16282670Y4413250D01*
X16293084Y4423663D01*
X16298418Y4434078D01*
X16358616Y4517136D02*
G01*
X16343122Y4512055D01*
X16337788Y4501642D01*
X16337788Y4491228D01*
X16343122Y4480813D01*
X16353536Y4475479D01*
X16374109Y4470400D01*
X16389858Y4465320D01*
X16400272Y4454905D01*
X16405352Y4444492D01*
X16405352Y4428744D01*
X16400272Y4418329D01*
X16394938Y4413250D01*
X16379443Y4408170D01*
X16358616Y4408170D01*
X16343122Y4413250D01*
X16337788Y4418329D01*
X16332708Y4428744D01*
X16332708Y4444492D01*
X16337788Y4454905D01*
X16348202Y4465320D01*
X16363950Y4470400D01*
X16384524Y4475479D01*
X16394938Y4480813D01*
X16400272Y4491228D01*
X16400272Y4501642D01*
X16394938Y4512055D01*
X16379443Y4517136D01*
X16358616Y4517136D01*
X19829018Y4516628D02*
G01*
X19823684Y4527042D01*
X19813270Y4537455D01*
X19803109Y4542536D01*
X19782281Y4542536D01*
X19771868Y4537455D01*
X19761454Y4527042D01*
X19756120Y4516628D01*
X19751040Y4500879D01*
X19751040Y4474971D01*
X19756120Y4459478D01*
X19761454Y4449063D01*
X19771868Y4438650D01*
X19782281Y4433570D01*
X19803109Y4433570D01*
X19813270Y4438650D01*
X19823684Y4449063D01*
X19829018Y4459478D01*
X19930872Y4506213D02*
G01*
X19925538Y4490720D01*
X19915124Y4480305D01*
X19899629Y4474971D01*
X19894550Y4474971D01*
X19878802Y4480305D01*
X19868388Y4490720D01*
X19863308Y4506213D01*
X19863308Y4511294D01*
X19868388Y4527042D01*
X19878802Y4537455D01*
X19894550Y4542536D01*
X19899629Y4542536D01*
X19915124Y4537455D01*
X19925538Y4527042D01*
X19930872Y4506213D01*
X19930872Y4480305D01*
X19925538Y4454144D01*
X19915124Y4438650D01*
X19899629Y4433570D01*
X19889216Y4433570D01*
X19873722Y4438650D01*
X19868388Y4449063D01*
X20861527Y4262881D02*
G01*
X20871941Y4268215D01*
X20882356Y4278629D01*
X20887436Y4288789D01*
X20887436Y4309618D01*
X20882356Y4320031D01*
X20871941Y4330445D01*
X20861527Y4335779D01*
X20845779Y4340860D01*
X20819872Y4340860D01*
X20804377Y4335779D01*
X20793963Y4330445D01*
X20783550Y4320031D01*
X20778470Y4309618D01*
X20778470Y4288789D01*
X20783550Y4278629D01*
X20793963Y4268215D01*
X20804377Y4262881D01*
X20866608Y4228592D02*
G01*
X20871941Y4218178D01*
X20887436Y4202684D01*
X20778470Y4202684D01*
X20887436Y4137152D02*
G01*
X20882356Y4152900D01*
X20866608Y4163060D01*
X20840700Y4168394D01*
X20825206Y4168394D01*
X20799043Y4163060D01*
X20783550Y4152900D01*
X20778470Y4137152D01*
X20778470Y4126737D01*
X20783550Y4111244D01*
X20799043Y4100829D01*
X20825206Y4095750D01*
X20840700Y4095750D01*
X20866608Y4100829D01*
X20882356Y4111244D01*
X20887436Y4126737D01*
X20887436Y4137152D01*
X16750284Y3665994D02*
G01*
X16859250Y3665994D01*
X16750284Y3665994D02*
G01*
X16750284Y3712730D01*
X16755363Y3728224D01*
X16760697Y3733558D01*
X16771111Y3738638D01*
X16781525Y3738638D01*
X16791940Y3733558D01*
X16797020Y3728224D01*
X16802100Y3712730D01*
X16802100Y3665994D01*
X16802100Y3702316D02*
G01*
X16859250Y3738638D01*
X16771111Y3772928D02*
G01*
X16765777Y3783342D01*
X16750284Y3799090D01*
X16859250Y3799090D01*
X17245584Y3678694D02*
G01*
X17354550Y3678694D01*
X17245584Y3678694D02*
G01*
X17245584Y3725430D01*
X17250663Y3740924D01*
X17255998Y3746258D01*
X17266411Y3751338D01*
X17276825Y3751338D01*
X17287240Y3746258D01*
X17292320Y3740924D01*
X17297400Y3725430D01*
X17297400Y3678694D01*
X17297400Y3715016D02*
G01*
X17354550Y3751338D01*
X17271491Y3790962D02*
G01*
X17266411Y3790962D01*
X17255998Y3796042D01*
X17250663Y3801376D01*
X17245584Y3811790D01*
X17245584Y3832364D01*
X17250663Y3842778D01*
X17255998Y3848112D01*
X17266411Y3853192D01*
X17276825Y3853192D01*
X17287240Y3848112D01*
X17302734Y3837698D01*
X17354550Y3785628D01*
X17354550Y3858526D01*
X17715484Y3653294D02*
G01*
X17824450Y3653294D01*
X17715484Y3653294D02*
G01*
X17715484Y3700030D01*
X17720563Y3715524D01*
X17725898Y3720858D01*
X17736311Y3725938D01*
X17746725Y3725938D01*
X17757140Y3720858D01*
X17762220Y3715524D01*
X17767300Y3700030D01*
X17767300Y3653294D01*
X17767300Y3689616D02*
G01*
X17824450Y3725938D01*
X17715484Y3770642D02*
G01*
X17715484Y3827792D01*
X17757140Y3796804D01*
X17757140Y3812298D01*
X17762220Y3822712D01*
X17767300Y3827792D01*
X17783048Y3833126D01*
X17793461Y3833126D01*
X17808956Y3827792D01*
X17819370Y3817378D01*
X17824450Y3801884D01*
X17824450Y3786390D01*
X17819370Y3770642D01*
X17814290Y3765562D01*
X17803875Y3760228D01*
X18121884Y3653294D02*
G01*
X18230850Y3653294D01*
X18121884Y3653294D02*
G01*
X18121884Y3700030D01*
X18126963Y3715524D01*
X18132298Y3720858D01*
X18142711Y3725938D01*
X18153125Y3725938D01*
X18163540Y3720858D01*
X18168620Y3715524D01*
X18173700Y3700030D01*
X18173700Y3653294D01*
X18173700Y3689616D02*
G01*
X18230850Y3725938D01*
X18121884Y3812298D02*
G01*
X18194527Y3760228D01*
X18194527Y3838206D01*
X18121884Y3812298D02*
G01*
X18230850Y3812298D01*
X11418315Y5099050D02*
G01*
X11309350Y5099050D01*
X11418315Y5099050D02*
G01*
X11418315Y5062728D01*
X11413236Y5046979D01*
X11402822Y5036820D01*
X11392408Y5031486D01*
X11376659Y5026405D01*
X11350752Y5026405D01*
X11335258Y5031486D01*
X11324843Y5036820D01*
X11314429Y5046979D01*
X11309350Y5062728D01*
X11309350Y5099050D01*
X11397488Y4992115D02*
G01*
X11402822Y4981702D01*
X11418315Y4965954D01*
X11309350Y4965954D01*
X15253716Y5086350D02*
G01*
X15144750Y5086350D01*
X15253716Y5086350D02*
G01*
X15253716Y5050028D01*
X15248636Y5034279D01*
X15238222Y5024120D01*
X15227808Y5018786D01*
X15212059Y5013705D01*
X15186152Y5013705D01*
X15170658Y5018786D01*
X15160243Y5024120D01*
X15149829Y5034279D01*
X15144750Y5050028D01*
X15144750Y5086350D01*
X15227808Y4974081D02*
G01*
X15232888Y4974081D01*
X15243302Y4969002D01*
X15248636Y4963668D01*
X15253716Y4953254D01*
X15253716Y4932679D01*
X15248636Y4922265D01*
X15243302Y4916931D01*
X15232888Y4911852D01*
X15222474Y4911852D01*
X15212059Y4916931D01*
X15196566Y4927345D01*
X15144750Y4979415D01*
X15144750Y4906518D01*
X18758916Y5149850D02*
G01*
X18649950Y5149850D01*
X18758916Y5149850D02*
G01*
X18758916Y5113528D01*
X18753836Y5097779D01*
X18743422Y5087620D01*
X18733008Y5082286D01*
X18717259Y5077205D01*
X18691352Y5077205D01*
X18675858Y5082286D01*
X18665443Y5087620D01*
X18655029Y5097779D01*
X18649950Y5113528D01*
X18649950Y5149850D01*
X18758916Y5032502D02*
G01*
X18758916Y4975352D01*
X18717259Y5006339D01*
X18717259Y4990845D01*
X18712179Y4980431D01*
X18707100Y4975352D01*
X18691352Y4970018D01*
X18680938Y4970018D01*
X18665443Y4975352D01*
X18655029Y4985765D01*
X18649950Y5001260D01*
X18649950Y5016754D01*
X18655029Y5032502D01*
X18660109Y5037581D01*
X18670524Y5042915D01*
X10044684Y6929894D02*
G01*
X10153650Y6929894D01*
X10044684Y6929894D02*
G01*
X10044684Y6976630D01*
X10049763Y6992124D01*
X10055097Y6997458D01*
X10065511Y7002538D01*
X10075925Y7002538D01*
X10086340Y6997458D01*
X10091420Y6992124D01*
X10096500Y6976630D01*
X10096500Y6929894D01*
X10096500Y6966216D02*
G01*
X10153650Y7002538D01*
X10081006Y7104392D02*
G01*
X10096500Y7099312D01*
X10106913Y7088898D01*
X10112247Y7073404D01*
X10112247Y7068070D01*
X10106913Y7052576D01*
X10096500Y7042162D01*
X10081006Y7036828D01*
X10075925Y7036828D01*
X10060177Y7042162D01*
X10049763Y7052576D01*
X10044684Y7068070D01*
X10044684Y7073404D01*
X10049763Y7088898D01*
X10060177Y7099312D01*
X10081006Y7104392D01*
X10106913Y7104392D01*
X10133075Y7099312D01*
X10148570Y7088898D01*
X10153650Y7073404D01*
X10153650Y7062990D01*
X10148570Y7047242D01*
X10138156Y7042162D01*
X14197584Y6904494D02*
G01*
X14306550Y6904494D01*
X14197584Y6904494D02*
G01*
X14197584Y6951230D01*
X14202663Y6966724D01*
X14207997Y6972058D01*
X14218411Y6977138D01*
X14228825Y6977138D01*
X14239240Y6972058D01*
X14244320Y6966724D01*
X14249400Y6951230D01*
X14249400Y6904494D01*
X14249400Y6940816D02*
G01*
X14306550Y6977138D01*
X14218411Y7011428D02*
G01*
X14213077Y7021842D01*
X14197584Y7037590D01*
X14306550Y7037590D01*
X14197584Y7102868D02*
G01*
X14202663Y7087374D01*
X14218411Y7076960D01*
X14244320Y7071880D01*
X14259813Y7071880D01*
X14285975Y7076960D01*
X14301470Y7087374D01*
X14306550Y7102868D01*
X14306550Y7113282D01*
X14301470Y7129030D01*
X14285975Y7139444D01*
X14259813Y7144524D01*
X14244320Y7144524D01*
X14218411Y7139444D01*
X14202663Y7129030D01*
X14197584Y7113282D01*
X14197584Y7102868D01*
X18934684Y6904494D02*
G01*
X19043650Y6904494D01*
X18934684Y6904494D02*
G01*
X18934684Y6951230D01*
X18939763Y6966724D01*
X18945098Y6972058D01*
X18955511Y6977138D01*
X18965925Y6977138D01*
X18976340Y6972058D01*
X18981420Y6966724D01*
X18986500Y6951230D01*
X18986500Y6904494D01*
X18986500Y6940816D02*
G01*
X19043650Y6977138D01*
X18955511Y7011428D02*
G01*
X18950177Y7021842D01*
X18934684Y7037590D01*
X19043650Y7037590D01*
X18955511Y7071880D02*
G01*
X18950177Y7082294D01*
X18934684Y7097788D01*
X19043650Y7097788D01*
X12025884Y6904494D02*
G01*
X12134850Y6904494D01*
X12025884Y6904494D02*
G01*
X12025884Y6951230D01*
X12030963Y6966724D01*
X12036297Y6972058D01*
X12046711Y6977138D01*
X12057125Y6977138D01*
X12067540Y6972058D01*
X12072620Y6966724D01*
X12077700Y6951230D01*
X12077700Y6904494D01*
X12077700Y6940816D02*
G01*
X12134850Y6977138D01*
X12046711Y7011428D02*
G01*
X12041377Y7021842D01*
X12025884Y7037590D01*
X12134850Y7037590D01*
X12051791Y7076960D02*
G01*
X12046711Y7076960D01*
X12036297Y7082294D01*
X12030963Y7087374D01*
X12025884Y7097788D01*
X12025884Y7118616D01*
X12030963Y7129030D01*
X12036297Y7134110D01*
X12046711Y7139444D01*
X12057125Y7139444D01*
X12067540Y7134110D01*
X12083034Y7123696D01*
X12134850Y7071880D01*
X12134850Y7144524D01*
X16496284Y6904494D02*
G01*
X16605250Y6904494D01*
X16496284Y6904494D02*
G01*
X16496284Y6951230D01*
X16501363Y6966724D01*
X16506697Y6972058D01*
X16517111Y6977138D01*
X16527525Y6977138D01*
X16537940Y6972058D01*
X16543020Y6966724D01*
X16548100Y6951230D01*
X16548100Y6904494D01*
X16548100Y6940816D02*
G01*
X16605250Y6977138D01*
X16517111Y7011428D02*
G01*
X16511777Y7021842D01*
X16496284Y7037590D01*
X16605250Y7037590D01*
X16496284Y7082294D02*
G01*
X16496284Y7139444D01*
X16537940Y7108202D01*
X16537940Y7123696D01*
X16543020Y7134110D01*
X16548100Y7139444D01*
X16563847Y7144524D01*
X16574261Y7144524D01*
X16589756Y7139444D01*
X16600170Y7129030D01*
X16605250Y7113282D01*
X16605250Y7097788D01*
X16600170Y7082294D01*
X16595090Y7076960D01*
X16584675Y7071880D01*
X21334984Y6840994D02*
G01*
X21443950Y6840994D01*
X21334984Y6840994D02*
G01*
X21334984Y6887730D01*
X21340063Y6903224D01*
X21345398Y6908558D01*
X21355811Y6913638D01*
X21366225Y6913638D01*
X21376640Y6908558D01*
X21381720Y6903224D01*
X21386800Y6887730D01*
X21386800Y6840994D01*
X21386800Y6877316D02*
G01*
X21443950Y6913638D01*
X21355811Y6947928D02*
G01*
X21350477Y6958342D01*
X21334984Y6974090D01*
X21443950Y6974090D01*
X21334984Y7060196D02*
G01*
X21407627Y7008380D01*
X21407627Y7086104D01*
X21334984Y7060196D02*
G01*
X21443950Y7060196D01*
X12585700Y5677992D02*
G01*
X12585700Y5600014D01*
X12590779Y5584520D01*
X12601193Y5574106D01*
X12616941Y5569026D01*
X12627356Y5569026D01*
X12642850Y5574106D01*
X12653263Y5584520D01*
X12658343Y5600014D01*
X12658343Y5677992D01*
X12755118Y5677992D02*
G01*
X12703047Y5677992D01*
X12697968Y5631256D01*
X12703047Y5636336D01*
X12718795Y5641670D01*
X12734290Y5641670D01*
X12749784Y5636336D01*
X12760197Y5626176D01*
X12765531Y5610428D01*
X12765531Y5600014D01*
X12760197Y5584520D01*
X12749784Y5574106D01*
X12734290Y5569026D01*
X12718795Y5569026D01*
X12703047Y5574106D01*
X12697968Y5579186D01*
X12692634Y5589600D01*
X16459200Y5716092D02*
G01*
X16459200Y5638114D01*
X16464279Y5622620D01*
X16474693Y5612206D01*
X16490441Y5607126D01*
X16500856Y5607126D01*
X16516350Y5612206D01*
X16526763Y5622620D01*
X16531843Y5638114D01*
X16531843Y5716092D01*
X16628618Y5700598D02*
G01*
X16623284Y5711012D01*
X16607790Y5716092D01*
X16597375Y5716092D01*
X16581881Y5711012D01*
X16571468Y5695264D01*
X16566134Y5669356D01*
X16566134Y5643448D01*
X16571468Y5622620D01*
X16581881Y5612206D01*
X16597375Y5607126D01*
X16602709Y5607126D01*
X16618204Y5612206D01*
X16628618Y5622620D01*
X16633697Y5638114D01*
X16633697Y5643448D01*
X16628618Y5658942D01*
X16618204Y5669356D01*
X16602709Y5674436D01*
X16597375Y5674436D01*
X16581881Y5669356D01*
X16571468Y5658942D01*
X16566134Y5643448D01*
X20066000Y5792292D02*
G01*
X20066000Y5714314D01*
X20071079Y5698820D01*
X20081493Y5688406D01*
X20097241Y5683326D01*
X20107656Y5683326D01*
X20123150Y5688406D01*
X20133563Y5698820D01*
X20138643Y5714314D01*
X20138643Y5792292D01*
X20245831Y5792292D02*
G01*
X20193761Y5683326D01*
X20172934Y5792292D02*
G01*
X20245831Y5792292D01*
X11283441Y8954515D02*
G01*
X11273027Y8949436D01*
X11262613Y8939021D01*
X11257279Y8928608D01*
X11252200Y8912860D01*
X11252200Y8886952D01*
X11257279Y8871458D01*
X11262613Y8861044D01*
X11273027Y8850629D01*
X11283441Y8845550D01*
X11304270Y8845550D01*
X11314429Y8850629D01*
X11324843Y8861044D01*
X11330177Y8871458D01*
X11335258Y8886952D01*
X11335258Y8912860D01*
X11330177Y8928608D01*
X11324843Y8939021D01*
X11314429Y8949436D01*
X11304270Y8954515D01*
X11283441Y8954515D01*
X11298936Y8866124D02*
G01*
X11330177Y8835136D01*
X11369547Y8933687D02*
G01*
X11379961Y8939021D01*
X11395709Y8954515D01*
X11395709Y8845550D01*
X13277341Y8954515D02*
G01*
X13266927Y8949436D01*
X13256513Y8939021D01*
X13251179Y8928608D01*
X13246100Y8912860D01*
X13246100Y8886952D01*
X13251179Y8871458D01*
X13256513Y8861044D01*
X13266927Y8850629D01*
X13277341Y8845550D01*
X13298170Y8845550D01*
X13308329Y8850629D01*
X13318743Y8861044D01*
X13324077Y8871458D01*
X13329158Y8886952D01*
X13329158Y8912860D01*
X13324077Y8928608D01*
X13318743Y8939021D01*
X13308329Y8949436D01*
X13298170Y8954515D01*
X13277341Y8954515D01*
X13292836Y8866124D02*
G01*
X13324077Y8835136D01*
X13368781Y8928608D02*
G01*
X13368781Y8933687D01*
X13373861Y8944102D01*
X13379195Y8949436D01*
X13389609Y8954515D01*
X13410184Y8954515D01*
X13420597Y8949436D01*
X13425931Y8944102D01*
X13431011Y8933687D01*
X13431011Y8923274D01*
X13425931Y8912860D01*
X13415518Y8897365D01*
X13363447Y8845550D01*
X13436345Y8845550D01*
X15601441Y8954515D02*
G01*
X15591027Y8949436D01*
X15580613Y8939021D01*
X15575279Y8928608D01*
X15570200Y8912860D01*
X15570200Y8886952D01*
X15575279Y8871458D01*
X15580613Y8861044D01*
X15591027Y8850629D01*
X15601441Y8845550D01*
X15622270Y8845550D01*
X15632429Y8850629D01*
X15642843Y8861044D01*
X15648177Y8871458D01*
X15653258Y8886952D01*
X15653258Y8912860D01*
X15648177Y8928608D01*
X15642843Y8939021D01*
X15632429Y8949436D01*
X15622270Y8954515D01*
X15601441Y8954515D01*
X15616936Y8866124D02*
G01*
X15648177Y8835136D01*
X15697961Y8954515D02*
G01*
X15755111Y8954515D01*
X15723870Y8912860D01*
X15739618Y8912860D01*
X15750031Y8907779D01*
X15755111Y8902700D01*
X15760445Y8886952D01*
X15760445Y8876537D01*
X15755111Y8861044D01*
X15744697Y8850629D01*
X15729204Y8845550D01*
X15713709Y8845550D01*
X15697961Y8850629D01*
X15692881Y8855710D01*
X15687547Y8866124D01*
X17595341Y8916415D02*
G01*
X17584927Y8911336D01*
X17574513Y8900921D01*
X17569179Y8890508D01*
X17564100Y8874760D01*
X17564100Y8848852D01*
X17569179Y8833358D01*
X17574513Y8822944D01*
X17584927Y8812529D01*
X17595341Y8807450D01*
X17616170Y8807450D01*
X17626329Y8812529D01*
X17636743Y8822944D01*
X17642077Y8833358D01*
X17647158Y8848852D01*
X17647158Y8874760D01*
X17642077Y8890508D01*
X17636743Y8900921D01*
X17626329Y8911336D01*
X17616170Y8916415D01*
X17595341Y8916415D01*
X17610836Y8828024D02*
G01*
X17642077Y8797036D01*
X17733518Y8916415D02*
G01*
X17681448Y8843771D01*
X17759425Y8843771D01*
X17733518Y8916415D02*
G01*
X17733518Y8807450D01*
X19906741Y8916415D02*
G01*
X19896327Y8911336D01*
X19885913Y8900921D01*
X19880579Y8890508D01*
X19875500Y8874760D01*
X19875500Y8848852D01*
X19880579Y8833358D01*
X19885913Y8822944D01*
X19896327Y8812529D01*
X19906741Y8807450D01*
X19927570Y8807450D01*
X19937729Y8812529D01*
X19948143Y8822944D01*
X19953477Y8833358D01*
X19958558Y8848852D01*
X19958558Y8874760D01*
X19953477Y8890508D01*
X19948143Y8900921D01*
X19937729Y8911336D01*
X19927570Y8916415D01*
X19906741Y8916415D01*
X19922236Y8828024D02*
G01*
X19953477Y8797036D01*
X20055331Y8916415D02*
G01*
X20003261Y8916415D01*
X19998181Y8869679D01*
X20003261Y8874760D01*
X20019009Y8880094D01*
X20034504Y8880094D01*
X20049998Y8874760D01*
X20060411Y8864600D01*
X20065745Y8848852D01*
X20065745Y8838437D01*
X20060411Y8822944D01*
X20049998Y8812529D01*
X20034504Y8807450D01*
X20019009Y8807450D01*
X20003261Y8812529D01*
X19998181Y8817610D01*
X19992848Y8828024D01*
X21837141Y8891015D02*
G01*
X21826727Y8885936D01*
X21816313Y8875521D01*
X21810979Y8865108D01*
X21805900Y8849360D01*
X21805900Y8823452D01*
X21810979Y8807958D01*
X21816313Y8797544D01*
X21826727Y8787129D01*
X21837141Y8782050D01*
X21857970Y8782050D01*
X21868129Y8787129D01*
X21878543Y8797544D01*
X21883877Y8807958D01*
X21888958Y8823452D01*
X21888958Y8849360D01*
X21883877Y8865108D01*
X21878543Y8875521D01*
X21868129Y8885936D01*
X21857970Y8891015D01*
X21837141Y8891015D01*
X21852636Y8802624D02*
G01*
X21883877Y8771636D01*
X21985731Y8875521D02*
G01*
X21980398Y8885936D01*
X21964904Y8891015D01*
X21954490Y8891015D01*
X21938995Y8885936D01*
X21928581Y8870187D01*
X21923248Y8844279D01*
X21923248Y8818371D01*
X21928581Y8797544D01*
X21938995Y8787129D01*
X21954490Y8782050D01*
X21959570Y8782050D01*
X21975318Y8787129D01*
X21985731Y8797544D01*
X21990811Y8813037D01*
X21990811Y8818371D01*
X21985731Y8833865D01*
X21975318Y8844279D01*
X21959570Y8849360D01*
X21954490Y8849360D01*
X21938995Y8844279D01*
X21928581Y8833865D01*
X21923248Y8818371D01*
X10400284Y6781787D02*
G01*
X10509250Y6781787D01*
X10400284Y6781787D02*
G01*
X10400284Y6818109D01*
X10405363Y6833857D01*
X10415777Y6844017D01*
X10426191Y6849351D01*
X10441940Y6854431D01*
X10467847Y6854431D01*
X10483341Y6849351D01*
X10493756Y6844017D01*
X10504170Y6833857D01*
X10509250Y6818109D01*
X10509250Y6781787D01*
X10400284Y6940791D02*
G01*
X10472927Y6888721D01*
X10472927Y6966699D01*
X10400284Y6940791D02*
G01*
X10509250Y6940791D01*
X14642084Y6781787D02*
G01*
X14751050Y6781787D01*
X14642084Y6781787D02*
G01*
X14642084Y6818109D01*
X14647163Y6833857D01*
X14657577Y6844017D01*
X14667991Y6849351D01*
X14683740Y6854431D01*
X14709647Y6854431D01*
X14725141Y6849351D01*
X14735556Y6844017D01*
X14745970Y6833857D01*
X14751050Y6818109D01*
X14751050Y6781787D01*
X14642084Y6951205D02*
G01*
X14642084Y6899135D01*
X14688820Y6894055D01*
X14683740Y6899135D01*
X14678406Y6914883D01*
X14678406Y6930377D01*
X14683740Y6945871D01*
X14693900Y6956285D01*
X14709647Y6961619D01*
X14720061Y6961619D01*
X14735556Y6956285D01*
X14745970Y6945871D01*
X14751050Y6930377D01*
X14751050Y6914883D01*
X14745970Y6899135D01*
X14740890Y6894055D01*
X14730475Y6888721D01*
X19391884Y6730987D02*
G01*
X19500850Y6730987D01*
X19391884Y6730987D02*
G01*
X19391884Y6767309D01*
X19396963Y6783057D01*
X19407377Y6793217D01*
X19417791Y6798551D01*
X19433540Y6803631D01*
X19459448Y6803631D01*
X19474941Y6798551D01*
X19485356Y6793217D01*
X19495770Y6783057D01*
X19500850Y6767309D01*
X19500850Y6730987D01*
X19407377Y6900405D02*
G01*
X19396963Y6895071D01*
X19391884Y6879577D01*
X19391884Y6869163D01*
X19396963Y6853669D01*
X19412711Y6843255D01*
X19438620Y6837921D01*
X19464527Y6837921D01*
X19485356Y6843255D01*
X19495770Y6853669D01*
X19500850Y6869163D01*
X19500850Y6874497D01*
X19495770Y6889991D01*
X19485356Y6900405D01*
X19469861Y6905485D01*
X19464527Y6905485D01*
X19449034Y6900405D01*
X19438620Y6889991D01*
X19433540Y6874497D01*
X19433540Y6869163D01*
X19438620Y6853669D01*
X19449034Y6843255D01*
X19464527Y6837921D01*
X12432284Y6769087D02*
G01*
X12541250Y6769087D01*
X12432284Y6769087D02*
G01*
X12432284Y6805409D01*
X12437363Y6821157D01*
X12447777Y6831317D01*
X12458191Y6836651D01*
X12473940Y6841731D01*
X12499847Y6841731D01*
X12515341Y6836651D01*
X12525756Y6831317D01*
X12536170Y6821157D01*
X12541250Y6805409D01*
X12541250Y6769087D01*
X12432284Y6948919D02*
G01*
X12541250Y6896849D01*
X12432284Y6876021D02*
G01*
X12432284Y6948919D01*
X16928084Y6781787D02*
G01*
X17037050Y6781787D01*
X16928084Y6781787D02*
G01*
X16928084Y6818109D01*
X16933163Y6833857D01*
X16943577Y6844017D01*
X16953991Y6849351D01*
X16969740Y6854431D01*
X16995648Y6854431D01*
X17011141Y6849351D01*
X17021556Y6844017D01*
X17031970Y6833857D01*
X17037050Y6818109D01*
X17037050Y6781787D01*
X16928084Y6914883D02*
G01*
X16933163Y6899135D01*
X16943577Y6894055D01*
X16953991Y6894055D01*
X16964406Y6899135D01*
X16969740Y6909549D01*
X16974820Y6930377D01*
X16979900Y6945871D01*
X16990313Y6956285D01*
X17000727Y6961619D01*
X17016475Y6961619D01*
X17026890Y6956285D01*
X17031970Y6951205D01*
X17037050Y6935457D01*
X17037050Y6914883D01*
X17031970Y6899135D01*
X17026890Y6894055D01*
X17016475Y6888721D01*
X17000727Y6888721D01*
X16990313Y6894055D01*
X16979900Y6904469D01*
X16974820Y6919963D01*
X16969740Y6940791D01*
X16964406Y6951205D01*
X16953991Y6956285D01*
X16943577Y6956285D01*
X16933163Y6951205D01*
X16928084Y6935457D01*
X16928084Y6914883D01*
X21741384Y6705587D02*
G01*
X21850350Y6705587D01*
X21741384Y6705587D02*
G01*
X21741384Y6741909D01*
X21746463Y6757657D01*
X21756877Y6767817D01*
X21767291Y6773151D01*
X21783040Y6778231D01*
X21808948Y6778231D01*
X21824441Y6773151D01*
X21834856Y6767817D01*
X21845270Y6757657D01*
X21850350Y6741909D01*
X21850350Y6705587D01*
X21777706Y6880085D02*
G01*
X21793200Y6875005D01*
X21803613Y6864591D01*
X21808948Y6849097D01*
X21808948Y6843763D01*
X21803613Y6828269D01*
X21793200Y6817855D01*
X21777706Y6812521D01*
X21772625Y6812521D01*
X21756877Y6817855D01*
X21746463Y6828269D01*
X21741384Y6843763D01*
X21741384Y6849097D01*
X21746463Y6864591D01*
X21756877Y6875005D01*
X21777706Y6880085D01*
X21803613Y6880085D01*
X21829775Y6875005D01*
X21845270Y6864591D01*
X21850350Y6849097D01*
X21850350Y6838683D01*
X21845270Y6822935D01*
X21834856Y6817855D01*
X12066015Y6946900D02*
G01*
X11957050Y6946900D01*
X12066015Y6946900D02*
G01*
X12066015Y6900163D01*
X12060936Y6884670D01*
X12055602Y6879336D01*
X12045188Y6874255D01*
X12034774Y6874255D01*
X12024359Y6879336D01*
X12019279Y6884670D01*
X12014200Y6900163D01*
X12014200Y6946900D01*
X12014200Y6910578D02*
G01*
X11957050Y6874255D01*
X12045188Y6839965D02*
G01*
X12050522Y6829552D01*
X12066015Y6813804D01*
X11957050Y6813804D01*
X12066015Y6717284D02*
G01*
X12066015Y6769100D01*
X12019279Y6774434D01*
X12024359Y6769100D01*
X12029693Y6753605D01*
X12029693Y6738112D01*
X12024359Y6722363D01*
X12014200Y6711950D01*
X11998452Y6706870D01*
X11988038Y6706870D01*
X11972543Y6711950D01*
X11962129Y6722363D01*
X11957050Y6738112D01*
X11957050Y6753605D01*
X11962129Y6769100D01*
X11967209Y6774434D01*
X11977624Y6779513D01*
X16498316Y6921500D02*
G01*
X16389350Y6921500D01*
X16498316Y6921500D02*
G01*
X16498316Y6874763D01*
X16493236Y6859270D01*
X16487902Y6853936D01*
X16477488Y6848855D01*
X16467074Y6848855D01*
X16456659Y6853936D01*
X16451579Y6859270D01*
X16446500Y6874763D01*
X16446500Y6921500D01*
X16446500Y6885178D02*
G01*
X16389350Y6848855D01*
X16477488Y6814565D02*
G01*
X16482822Y6804152D01*
X16498316Y6788404D01*
X16389350Y6788404D01*
X16482822Y6691884D02*
G01*
X16493236Y6696963D01*
X16498316Y6712712D01*
X16498316Y6723126D01*
X16493236Y6738620D01*
X16477488Y6749034D01*
X16451579Y6754113D01*
X16425672Y6754113D01*
X16404843Y6749034D01*
X16394429Y6738620D01*
X16389350Y6723126D01*
X16389350Y6717792D01*
X16394429Y6702297D01*
X16404843Y6691884D01*
X16420338Y6686550D01*
X16425672Y6686550D01*
X16441166Y6691884D01*
X16451579Y6702297D01*
X16456659Y6717792D01*
X16456659Y6723126D01*
X16451579Y6738620D01*
X16441166Y6749034D01*
X16425672Y6754113D01*
X21311616Y6870700D02*
G01*
X21202650Y6870700D01*
X21311616Y6870700D02*
G01*
X21311616Y6823963D01*
X21306536Y6808470D01*
X21301202Y6803136D01*
X21290788Y6798055D01*
X21280374Y6798055D01*
X21269959Y6803136D01*
X21264879Y6808470D01*
X21259800Y6823963D01*
X21259800Y6870700D01*
X21259800Y6834378D02*
G01*
X21202650Y6798055D01*
X21290788Y6763765D02*
G01*
X21296122Y6753352D01*
X21311616Y6737604D01*
X21202650Y6737604D01*
X21311616Y6630670D02*
G01*
X21202650Y6682739D01*
X21311616Y6703313D02*
G01*
X21311616Y6630670D01*
X14186916Y6921500D02*
G01*
X14077950Y6921500D01*
X14186916Y6921500D02*
G01*
X14186916Y6874763D01*
X14181836Y6859270D01*
X14176502Y6853936D01*
X14166088Y6848855D01*
X14155674Y6848855D01*
X14145259Y6853936D01*
X14140179Y6859270D01*
X14135100Y6874763D01*
X14135100Y6921500D01*
X14135100Y6885178D02*
G01*
X14077950Y6848855D01*
X14166088Y6814565D02*
G01*
X14171422Y6804152D01*
X14186916Y6788404D01*
X14077950Y6788404D01*
X14186916Y6728205D02*
G01*
X14181836Y6743700D01*
X14171422Y6749034D01*
X14161008Y6749034D01*
X14150593Y6743700D01*
X14145259Y6733539D01*
X14140179Y6712712D01*
X14135100Y6696963D01*
X14124686Y6686550D01*
X14114272Y6681470D01*
X14098524Y6681470D01*
X14088109Y6686550D01*
X14083029Y6691884D01*
X14077950Y6707378D01*
X14077950Y6728205D01*
X14083029Y6743700D01*
X14088109Y6749034D01*
X14098524Y6754113D01*
X14114272Y6754113D01*
X14124686Y6749034D01*
X14135100Y6738620D01*
X14140179Y6723126D01*
X14145259Y6702297D01*
X14150593Y6691884D01*
X14161008Y6686550D01*
X14171422Y6686550D01*
X14181836Y6691884D01*
X14186916Y6707378D01*
X14186916Y6728205D01*
X18911316Y6883400D02*
G01*
X18802350Y6883400D01*
X18911316Y6883400D02*
G01*
X18911316Y6836663D01*
X18906236Y6821170D01*
X18900902Y6815836D01*
X18890488Y6810755D01*
X18880074Y6810755D01*
X18869659Y6815836D01*
X18864579Y6821170D01*
X18859500Y6836663D01*
X18859500Y6883400D01*
X18859500Y6847078D02*
G01*
X18802350Y6810755D01*
X18890488Y6776465D02*
G01*
X18895822Y6766052D01*
X18911316Y6750304D01*
X18802350Y6750304D01*
X18874993Y6648450D02*
G01*
X18859500Y6653784D01*
X18849086Y6664197D01*
X18843752Y6679692D01*
X18843752Y6685026D01*
X18849086Y6700520D01*
X18859500Y6710934D01*
X18874993Y6716013D01*
X18880074Y6716013D01*
X18895822Y6710934D01*
X18906236Y6700520D01*
X18911316Y6685026D01*
X18911316Y6679692D01*
X18906236Y6664197D01*
X18895822Y6653784D01*
X18874993Y6648450D01*
X18849086Y6648450D01*
X18822924Y6653784D01*
X18807429Y6664197D01*
X18802350Y6679692D01*
X18802350Y6690105D01*
X18807429Y6705600D01*
X18817843Y6710934D01*
X22846284Y6781800D02*
G01*
X22955250Y6781800D01*
X22846284Y6781800D02*
G01*
X22846284Y6828536D01*
X22851363Y6844029D01*
X22856698Y6849363D01*
X22867111Y6854444D01*
X22877525Y6854444D01*
X22887940Y6849363D01*
X22893020Y6844029D01*
X22898100Y6828536D01*
X22898100Y6781800D01*
X22898100Y6818121D02*
G01*
X22955250Y6854444D01*
X22872191Y6894068D02*
G01*
X22867111Y6894068D01*
X22856698Y6899147D01*
X22851363Y6904481D01*
X22846284Y6914895D01*
X22846284Y6935470D01*
X22851363Y6945884D01*
X22856698Y6951218D01*
X22867111Y6956297D01*
X22877525Y6956297D01*
X22887940Y6951218D01*
X22903434Y6940804D01*
X22955250Y6888734D01*
X22955250Y6961631D01*
X22846284Y7026910D02*
G01*
X22851363Y7011415D01*
X22867111Y7001002D01*
X22893020Y6995921D01*
X22908513Y6995921D01*
X22934675Y7001002D01*
X22950170Y7011415D01*
X22955250Y7026910D01*
X22955250Y7037323D01*
X22950170Y7053071D01*
X22934675Y7063486D01*
X22908513Y7068565D01*
X22893020Y7068565D01*
X22867111Y7063486D01*
X22851363Y7053071D01*
X22846284Y7037323D01*
X22846284Y7026910D01*
X21139404Y4318000D02*
G01*
X21217381Y4318000D01*
X21232875Y4323079D01*
X21243290Y4333494D01*
X21248370Y4349242D01*
X21248370Y4359655D01*
X21243290Y4375150D01*
X21232875Y4385563D01*
X21217381Y4390644D01*
X21139404Y4390644D01*
X21139404Y4451095D02*
G01*
X21144484Y4435347D01*
X21154898Y4430268D01*
X21165311Y4430268D01*
X21175725Y4435347D01*
X21181059Y4445762D01*
X21186140Y4466589D01*
X21191220Y4482084D01*
X21201634Y4492497D01*
X21212048Y4497831D01*
X21227795Y4497831D01*
X21238209Y4492497D01*
X21243290Y4487418D01*
X21248370Y4471670D01*
X21248370Y4451095D01*
X21243290Y4435347D01*
X21238209Y4430268D01*
X21227795Y4424934D01*
X21212048Y4424934D01*
X21201634Y4430268D01*
X21191220Y4440681D01*
X21186140Y4456176D01*
X21181059Y4477004D01*
X21175725Y4487418D01*
X21165311Y4492497D01*
X21154898Y4492497D01*
X21144484Y4487418D01*
X21139404Y4471670D01*
X21139404Y4451095D01*
X21324316Y3325799D02*
G01*
X21215350Y3325799D01*
X21324316Y3325799D02*
G01*
X21324316Y3279063D01*
X21319236Y3263569D01*
X21313902Y3258235D01*
X21303488Y3253155D01*
X21293074Y3253155D01*
X21282659Y3258235D01*
X21277579Y3263569D01*
X21272500Y3279063D01*
X21272500Y3325799D01*
X21272500Y3289477D02*
G01*
X21215350Y3253155D01*
X21298408Y3213531D02*
G01*
X21303488Y3213531D01*
X21313902Y3208451D01*
X21319236Y3203117D01*
X21324316Y3192703D01*
X21324316Y3172129D01*
X21319236Y3161715D01*
X21313902Y3156381D01*
X21303488Y3151301D01*
X21293074Y3151301D01*
X21282659Y3156381D01*
X21267166Y3166795D01*
X21215350Y3218865D01*
X21215350Y3145967D01*
X21324316Y3039033D02*
G01*
X21215350Y3090849D01*
X21324316Y3111677D02*
G01*
X21324316Y3039033D01*
X21448699Y2500884D02*
G01*
X21448699Y2609850D01*
X21448699Y2500884D02*
G01*
X21401963Y2500884D01*
X21386469Y2505963D01*
X21381135Y2511297D01*
X21376055Y2521712D01*
X21376055Y2532126D01*
X21381135Y2542539D01*
X21386469Y2547620D01*
X21401963Y2552700D01*
X21448699Y2552700D01*
X21412377Y2552700D02*
G01*
X21376055Y2609850D01*
X21336431Y2526792D02*
G01*
X21336431Y2521712D01*
X21331351Y2511297D01*
X21326017Y2505963D01*
X21315603Y2500884D01*
X21295029Y2500884D01*
X21284615Y2505963D01*
X21279281Y2511297D01*
X21274201Y2521712D01*
X21274201Y2532126D01*
X21279281Y2542539D01*
X21289695Y2558034D01*
X21341765Y2609850D01*
X21268867Y2609850D01*
X21167013Y2537205D02*
G01*
X21172347Y2552700D01*
X21182761Y2563113D01*
X21198255Y2568447D01*
X21203589Y2568447D01*
X21219083Y2563113D01*
X21229497Y2552700D01*
X21234577Y2537205D01*
X21234577Y2532126D01*
X21229497Y2516378D01*
X21219083Y2505963D01*
X21203589Y2500884D01*
X21198255Y2500884D01*
X21182761Y2505963D01*
X21172347Y2516378D01*
X21167013Y2537205D01*
X21167013Y2563113D01*
X21172347Y2589276D01*
X21182761Y2604770D01*
X21198255Y2609850D01*
X21208669Y2609850D01*
X21224163Y2604770D01*
X21229497Y2594355D01*
X22032899Y2500884D02*
G01*
X22032899Y2609850D01*
X22032899Y2500884D02*
G01*
X21986163Y2500884D01*
X21970669Y2505963D01*
X21965335Y2511297D01*
X21960255Y2521712D01*
X21960255Y2532126D01*
X21965335Y2542539D01*
X21970669Y2547620D01*
X21986163Y2552700D01*
X22032899Y2552700D01*
X21996577Y2552700D02*
G01*
X21960255Y2609850D01*
X21920631Y2526792D02*
G01*
X21920631Y2521712D01*
X21915551Y2511297D01*
X21910217Y2505963D01*
X21899803Y2500884D01*
X21879229Y2500884D01*
X21868815Y2505963D01*
X21863481Y2511297D01*
X21858401Y2521712D01*
X21858401Y2532126D01*
X21863481Y2542539D01*
X21873895Y2558034D01*
X21925965Y2609850D01*
X21853067Y2609850D01*
X21792869Y2500884D02*
G01*
X21808363Y2505963D01*
X21813697Y2516378D01*
X21813697Y2526792D01*
X21808363Y2537205D01*
X21797949Y2542539D01*
X21777375Y2547620D01*
X21761627Y2552700D01*
X21751213Y2563113D01*
X21746133Y2573528D01*
X21746133Y2589276D01*
X21751213Y2599689D01*
X21756547Y2604770D01*
X21772041Y2609850D01*
X21792869Y2609850D01*
X21808363Y2604770D01*
X21813697Y2599689D01*
X21818777Y2589276D01*
X21818777Y2573528D01*
X21813697Y2563113D01*
X21803283Y2552700D01*
X21787789Y2547620D01*
X21766961Y2542539D01*
X21756547Y2537205D01*
X21751213Y2526792D01*
X21751213Y2516378D01*
X21756547Y2505963D01*
X21772041Y2500884D01*
X21792869Y2500884D01*
X20763991Y4511878D02*
G01*
X20753577Y4506544D01*
X20743163Y4496130D01*
X20738084Y4485970D01*
X20738084Y4465142D01*
X20743163Y4454728D01*
X20753577Y4444314D01*
X20763991Y4438980D01*
X20779740Y4433900D01*
X20805648Y4433900D01*
X20821141Y4438980D01*
X20831556Y4444314D01*
X20841970Y4454728D01*
X20847050Y4465142D01*
X20847050Y4485970D01*
X20841970Y4496130D01*
X20831556Y4506544D01*
X20821141Y4511878D01*
X20758911Y4546168D02*
G01*
X20753577Y4556582D01*
X20738084Y4572076D01*
X20847050Y4572076D01*
X20758911Y4606366D02*
G01*
X20753577Y4616780D01*
X20738084Y4632274D01*
X20847050Y4632274D01*
X21615400Y3811015D02*
G01*
X21615400Y3733037D01*
X21620479Y3717544D01*
X21630893Y3707129D01*
X21646641Y3702050D01*
X21657056Y3702050D01*
X21672550Y3707129D01*
X21682963Y3717544D01*
X21688043Y3733037D01*
X21688043Y3811015D01*
X21789898Y3774694D02*
G01*
X21784818Y3759200D01*
X21774404Y3748786D01*
X21758909Y3743452D01*
X21753575Y3743452D01*
X21738081Y3748786D01*
X21727668Y3759200D01*
X21722334Y3774694D01*
X21722334Y3779773D01*
X21727668Y3795521D01*
X21738081Y3805936D01*
X21753575Y3811015D01*
X21758909Y3811015D01*
X21774404Y3805936D01*
X21784818Y3795521D01*
X21789898Y3774694D01*
X21789898Y3748786D01*
X21784818Y3722623D01*
X21774404Y3707129D01*
X21758909Y3702050D01*
X21748495Y3702050D01*
X21732748Y3707129D01*
X21727668Y3717544D01*
G36*
X11876125Y5422900D02*
G01*
X11876125Y5092700D01*
X11885676Y5102453D01*
X11894667Y5112715D01*
X11903049Y5123535D01*
X11910771Y5134813D01*
X11917781Y5146548D01*
X11924080Y5158689D01*
X11929618Y5171186D01*
X11934444Y5183987D01*
X11938457Y5197043D01*
X11941708Y5210302D01*
X11944146Y5223764D01*
X11945772Y5237327D01*
X11946585Y5250942D01*
X11946585Y5264658D01*
X11945772Y5278272D01*
X11944146Y5291836D01*
X11941708Y5305298D01*
X11938457Y5318556D01*
X11934444Y5331612D01*
X11929618Y5344414D01*
X11924080Y5356910D01*
X11917781Y5369052D01*
X11910771Y5380786D01*
X11903049Y5392064D01*
X11894667Y5402884D01*
X11885676Y5413146D01*
G37*
G36*
X15711525Y5524500D02*
G01*
X15711525Y5194300D01*
X15721076Y5204053D01*
X15730067Y5214315D01*
X15738449Y5225135D01*
X15746171Y5236413D01*
X15753181Y5248148D01*
X15759480Y5260289D01*
X15765018Y5272786D01*
X15769844Y5285587D01*
X15773857Y5298643D01*
X15777108Y5311902D01*
X15779546Y5325364D01*
X15781172Y5338927D01*
X15781985Y5352542D01*
X15781985Y5366258D01*
X15781172Y5379872D01*
X15779546Y5393436D01*
X15777108Y5406898D01*
X15773857Y5420156D01*
X15769844Y5433212D01*
X15765018Y5446014D01*
X15759480Y5458510D01*
X15753181Y5470652D01*
X15746171Y5482386D01*
X15738449Y5493664D01*
X15730067Y5504484D01*
X15721076Y5514746D01*
G37*
G36*
X19292925Y5537200D02*
G01*
X19292925Y5207000D01*
X19302476Y5216753D01*
X19311467Y5227015D01*
X19319849Y5237835D01*
X19327571Y5249113D01*
X19334581Y5260848D01*
X19340880Y5272989D01*
X19346418Y5285486D01*
X19351244Y5298287D01*
X19355257Y5311343D01*
X19358508Y5324602D01*
X19360946Y5338064D01*
X19362572Y5351627D01*
X19363385Y5365242D01*
X19363385Y5378958D01*
X19362572Y5392572D01*
X19360946Y5406136D01*
X19358508Y5419598D01*
X19355257Y5432856D01*
X19351244Y5445912D01*
X19346418Y5458714D01*
X19340880Y5471210D01*
X19334581Y5483352D01*
X19327571Y5495086D01*
X19319849Y5506364D01*
X19311467Y5517184D01*
X19302476Y5527446D01*
G37*
D17*
X17170400Y1727200D02*
G01*
X16916400Y1981200D01*
X16916400Y2743200D01*
X16992600Y2819400D01*
X17741900Y2819400D01*
X17818100Y2895600D01*
X18643600Y2895600D01*
X18643600Y3200400D01*
X18808700Y3365500D01*
X20053300Y3365500D01*
X20218400Y3200400D01*
X20218400Y1968500D01*
X19951700Y1701800D01*
X17195800Y1701800D01*
X17145000Y1752600D01*
D10*
X21869400Y9670201D02*
G01*
X18821400Y9670201D01*
X18821400Y9670201D02*
G01*
X18821400Y10915200D01*
X18821400Y10915202D02*
G01*
X21869400Y10915202D01*
X21869400Y9670201D02*
G01*
X21869400Y10915202D01*
X21539187Y10642602D02*
G01*
X21539187Y10414002D01*
X21780487Y10414002D01*
X21196287Y10401302D02*
G01*
X21437587Y10401302D01*
X21437587Y10642602D01*
X21437587Y10071102D02*
G01*
X21437587Y10312402D01*
X21196287Y10312402D01*
X21780487Y10312402D02*
G01*
X21539187Y10312402D01*
X21539187Y10071102D01*
X20777187Y10642602D02*
G01*
X20777187Y10414002D01*
X21018487Y10414002D01*
X20434287Y10401302D02*
G01*
X20675587Y10401302D01*
X20675587Y10642602D01*
X20675587Y10071102D02*
G01*
X20675587Y10312402D01*
X20434287Y10312402D01*
X21018487Y10312402D02*
G01*
X20777187Y10312402D01*
X20777187Y10071102D01*
X19494484Y10312402D02*
G01*
X19253184Y10312402D01*
X19253184Y10071102D01*
X19151584Y10071102D02*
G01*
X19151584Y10312402D01*
X18910284Y10312402D01*
X18910284Y10401302D02*
G01*
X19151584Y10401302D01*
X19151584Y10642602D01*
X19253184Y10642602D02*
G01*
X19253184Y10414002D01*
X19494484Y10414002D01*
X20256484Y10312402D02*
G01*
X20015184Y10312402D01*
X20015184Y10071102D01*
X19913584Y10071102D02*
G01*
X19913584Y10312402D01*
X19672284Y10312402D01*
X19672284Y10401302D02*
G01*
X19913584Y10401302D01*
X19913584Y10642602D01*
X20015184Y10642602D02*
G01*
X20015184Y10414002D01*
X20256484Y10414002D01*
X20421600Y9677400D02*
G01*
X20269200Y9677400D01*
X20269200Y10909300D01*
X20421600Y10909300D01*
X20421600Y9677400D01*
X21183600Y9677400D02*
G01*
X21031200Y9677400D01*
X21031200Y10909300D01*
X21183600Y10909300D01*
X21183600Y9677400D01*
X19659600Y9677400D02*
G01*
X19507200Y9677400D01*
X19507200Y10909300D01*
X19659600Y10909300D01*
X19659600Y9677400D01*
X18897600Y9677400D02*
G01*
X18821400Y9677400D01*
X18821400Y10909300D01*
X18897600Y10909300D01*
X18897600Y9677400D01*
X21869400Y9677400D02*
G01*
X21793200Y9677400D01*
X21793200Y10909300D01*
X21869400Y10909300D01*
X21869400Y9677400D01*
X11493799Y7143399D02*
G01*
X11493799Y6623400D01*
X11493799Y6623400D02*
G01*
X11213800Y6623400D01*
X11213800Y7143399D02*
G01*
X11213800Y6623400D01*
X11493799Y7143399D02*
G01*
X11213800Y7143399D01*
X11493799Y7047473D02*
G01*
X11213800Y7047473D01*
X15582600Y6610700D02*
G01*
X15582600Y7130699D01*
X15582600Y7130699D02*
G01*
X15862599Y7130699D01*
X15862599Y6610700D02*
G01*
X15862599Y7130699D01*
X15582600Y6610700D02*
G01*
X15862599Y6610700D01*
X15582600Y6706626D02*
G01*
X15862599Y6706626D01*
X20370500Y6547200D02*
G01*
X20370500Y7067199D01*
X20370500Y7067199D02*
G01*
X20650499Y7067199D01*
X20650499Y6547200D02*
G01*
X20650499Y7067199D01*
X20370500Y6547200D02*
G01*
X20650499Y6547200D01*
X20370500Y6643126D02*
G01*
X20650499Y6643126D01*
X13296600Y6610700D02*
G01*
X13296600Y7130699D01*
X13296600Y7130699D02*
G01*
X13576599Y7130699D01*
X13576599Y6610700D02*
G01*
X13576599Y7130699D01*
X13296600Y6610700D02*
G01*
X13576599Y6610700D01*
X13296600Y6706626D02*
G01*
X13576599Y6706626D01*
X17932100Y6585300D02*
G01*
X17932100Y7105299D01*
X17932100Y7105299D02*
G01*
X18212099Y7105299D01*
X18212099Y6585300D02*
G01*
X18212099Y7105299D01*
X17932100Y6585300D02*
G01*
X18212099Y6585300D01*
X17932100Y6681226D02*
G01*
X18212099Y6681226D01*
X22656500Y6521800D02*
G01*
X22656500Y7041799D01*
X22656500Y7041799D02*
G01*
X22936499Y7041799D01*
X22936499Y6521800D02*
G01*
X22936499Y7041799D01*
X22656500Y6521800D02*
G01*
X22936499Y6521800D01*
X22656500Y6617726D02*
G01*
X22936499Y6617726D01*
X14301599Y3512700D02*
G01*
X14301599Y2862699D01*
X13841600Y3512700D02*
G01*
X13841600Y3256635D01*
X13841600Y2915757D02*
G01*
X13841600Y3118764D01*
X13841600Y3512700D02*
G01*
X13846360Y3512700D01*
X14042839Y3512700D02*
G01*
X14100360Y3512700D01*
X14296839Y3512700D02*
G01*
X14301599Y3512700D01*
X14301599Y2862699D02*
G01*
X14296839Y2862699D01*
X14100360Y2862699D02*
G01*
X14057713Y2862699D01*
X15000099Y3512700D02*
G01*
X15000099Y2862699D01*
X14540100Y3512700D02*
G01*
X14540100Y3256635D01*
X14540100Y2915757D02*
G01*
X14540100Y3118764D01*
X14540100Y3512700D02*
G01*
X14544860Y3512700D01*
X14741339Y3512700D02*
G01*
X14798860Y3512700D01*
X14995339Y3512700D02*
G01*
X15000099Y3512700D01*
X15000099Y2862699D02*
G01*
X14995339Y2862699D01*
X14798860Y2862699D02*
G01*
X14756213Y2862699D01*
X15698599Y3512700D02*
G01*
X15698599Y2862699D01*
X15238600Y3512700D02*
G01*
X15238600Y3256635D01*
X15238600Y2915757D02*
G01*
X15238600Y3118764D01*
X15238600Y3512700D02*
G01*
X15243360Y3512700D01*
X15439839Y3512700D02*
G01*
X15497360Y3512700D01*
X15693839Y3512700D02*
G01*
X15698599Y3512700D01*
X15698599Y2862699D02*
G01*
X15693839Y2862699D01*
X15497360Y2862699D02*
G01*
X15454713Y2862699D01*
X16384399Y3525400D02*
G01*
X16384399Y2875399D01*
X15924400Y3525400D02*
G01*
X15924400Y3269335D01*
X15924400Y2928457D02*
G01*
X15924400Y3131464D01*
X15924400Y3525400D02*
G01*
X15929160Y3525400D01*
X16125639Y3525400D02*
G01*
X16183160Y3525400D01*
X16379639Y3525400D02*
G01*
X16384399Y3525400D01*
X16384399Y2875399D02*
G01*
X16379639Y2875399D01*
X16183160Y2875399D02*
G01*
X16140513Y2875399D01*
X13208005Y2679700D02*
G01*
X13284205Y2679700D01*
X12547605Y2679700D02*
G01*
X12471405Y2679700D01*
X13195312Y2565400D02*
G01*
X12547612Y2565400D01*
X12547612Y2794000D01*
X13195312Y2794000D01*
X13195312Y2565400D01*
X13208005Y3111500D02*
G01*
X13284205Y3111500D01*
X12547605Y3111500D02*
G01*
X12471405Y3111500D01*
X13195312Y2997200D02*
G01*
X12547612Y2997200D01*
X12547612Y3225800D01*
X13195312Y3225800D01*
X13195312Y2997200D01*
X13220705Y3517900D02*
G01*
X13296905Y3517900D01*
X12560305Y3517900D02*
G01*
X12484105Y3517900D01*
X13208012Y3403600D02*
G01*
X12560312Y3403600D01*
X12560312Y3632200D01*
X13208012Y3632200D01*
X13208012Y3403600D01*
X13220705Y3848100D02*
G01*
X13296905Y3848100D01*
X12560305Y3848100D02*
G01*
X12484105Y3848100D01*
X13208012Y3733800D02*
G01*
X12560312Y3733800D01*
X12560312Y3962400D01*
X13208012Y3962400D01*
X13208012Y3733800D01*
X10972800Y6616694D02*
G01*
X10972800Y6540494D01*
X10972800Y7277094D02*
G01*
X10972800Y7353294D01*
X10858500Y6629387D02*
G01*
X10858500Y7277087D01*
X11087100Y7277087D01*
X11087100Y6629387D01*
X10858500Y6629387D01*
X15290800Y6591294D02*
G01*
X15290800Y6515094D01*
X15290800Y7251694D02*
G01*
X15290800Y7327894D01*
X15176500Y6603987D02*
G01*
X15176500Y7251687D01*
X15405100Y7251687D01*
X15405100Y6603987D01*
X15176500Y6603987D01*
X20066000Y6553194D02*
G01*
X20066000Y6476994D01*
X20066000Y7213594D02*
G01*
X20066000Y7289794D01*
X19951700Y6565887D02*
G01*
X19951700Y7213587D01*
X20180300Y7213587D01*
X20180300Y6565887D01*
X19951700Y6565887D01*
X13055600Y6603994D02*
G01*
X13055600Y6527794D01*
X13055600Y7264394D02*
G01*
X13055600Y7340594D01*
X12941300Y6616687D02*
G01*
X12941300Y7264387D01*
X13169900Y7264387D01*
X13169900Y6616687D01*
X12941300Y6616687D01*
X17589500Y6553194D02*
G01*
X17589500Y6476994D01*
X17589500Y7213594D02*
G01*
X17589500Y7289794D01*
X17475200Y6565887D02*
G01*
X17475200Y7213587D01*
X17703800Y7213587D01*
X17703800Y6565887D01*
X17475200Y6565887D01*
X22402800Y6489694D02*
G01*
X22402800Y6413494D01*
X22402800Y7150094D02*
G01*
X22402800Y7226294D01*
X22288500Y6502387D02*
G01*
X22288500Y7150087D01*
X22517100Y7150087D01*
X22517100Y6502387D01*
X22288500Y6502387D01*
X11545087Y5407787D02*
G01*
X11646687Y5407787D01*
X11596700Y5457799D02*
G01*
X11596700Y5356199D01*
X15380487Y5509387D02*
G01*
X15482087Y5509387D01*
X15432100Y5559399D02*
G01*
X15432100Y5457799D01*
X18961887Y5522087D02*
G01*
X19063487Y5522087D01*
X19013500Y5572099D02*
G01*
X19013500Y5470499D01*
D36*
X11442954Y4661154D02*
G01*
X11950954Y4661154D01*
X11950954Y4915154D01*
X11442954Y4915154D01*
X11442954Y4661154D01*
X15291054Y4699254D02*
G01*
X15799054Y4699254D01*
X15799054Y4953254D01*
X15291054Y4953254D01*
X15291054Y4699254D01*
X18821654Y4724654D02*
G01*
X19329654Y4724654D01*
X19329654Y4978654D01*
X18821654Y4978654D01*
X18821654Y4724654D01*
X12572745Y4266945D02*
G01*
X12064745Y4266945D01*
X12064745Y4012945D01*
X12572745Y4012945D01*
X12572745Y4266945D01*
X16497045Y4368545D02*
G01*
X15989045Y4368545D01*
X15989045Y4114545D01*
X16497045Y4114545D01*
X16497045Y4368545D01*
X20027645Y4393945D02*
G01*
X19519645Y4393945D01*
X19519645Y4139945D01*
X20027645Y4139945D01*
X20027645Y4393945D01*
X20738845Y4064254D02*
G01*
X20738845Y4572254D01*
X20484845Y4572254D01*
X20484845Y4064254D01*
X20738845Y4064254D01*
D10*
X17018000Y3352794D02*
G01*
X17018000Y3276594D01*
X17018000Y4013194D02*
G01*
X17018000Y4089394D01*
X16903700Y3365487D02*
G01*
X16903700Y4013187D01*
X17132300Y4013187D01*
X17132300Y3365487D01*
X16903700Y3365487D01*
X17513300Y3365494D02*
G01*
X17513300Y3289294D01*
X17513300Y4025894D02*
G01*
X17513300Y4102094D01*
X17399000Y3378187D02*
G01*
X17399000Y4025887D01*
X17627600Y4025887D01*
X17627600Y3378187D01*
X17399000Y3378187D01*
X17983200Y3340094D02*
G01*
X17983200Y3263894D01*
X17983200Y4000494D02*
G01*
X17983200Y4076694D01*
X17868900Y3352787D02*
G01*
X17868900Y4000487D01*
X18097500Y4000487D01*
X18097500Y3352787D01*
X17868900Y3352787D01*
X18389600Y3340094D02*
G01*
X18389600Y3263894D01*
X18389600Y4000494D02*
G01*
X18389600Y4076694D01*
X18275300Y3352787D02*
G01*
X18275300Y4000487D01*
X18503900Y4000487D01*
X18503900Y3352787D01*
X18275300Y3352787D01*
X11239799Y5352699D02*
G01*
X11239799Y4832700D01*
X11239799Y4832700D02*
G01*
X10959800Y4832700D01*
X10959800Y5352699D02*
G01*
X10959800Y4832700D01*
X11239799Y5352699D02*
G01*
X10959800Y5352699D01*
X11239799Y5256773D02*
G01*
X10959800Y5256773D01*
X15075199Y5339999D02*
G01*
X15075199Y4820000D01*
X15075199Y4820000D02*
G01*
X14795200Y4820000D01*
X14795200Y5339999D02*
G01*
X14795200Y4820000D01*
X15075199Y5339999D02*
G01*
X14795200Y5339999D01*
X15075199Y5244073D02*
G01*
X14795200Y5244073D01*
X18580399Y5403499D02*
G01*
X18580399Y4883500D01*
X18580399Y4883500D02*
G01*
X18300400Y4883500D01*
X18300400Y5403499D02*
G01*
X18300400Y4883500D01*
X18580399Y5403499D02*
G01*
X18300400Y5403499D01*
X18580399Y5307573D02*
G01*
X18300400Y5307573D01*
X10312400Y6616694D02*
G01*
X10312400Y6540494D01*
X10312400Y7277094D02*
G01*
X10312400Y7353294D01*
X10198100Y6629387D02*
G01*
X10198100Y7277087D01*
X10426700Y7277087D01*
X10426700Y6629387D01*
X10198100Y6629387D01*
X14465300Y6591294D02*
G01*
X14465300Y6515094D01*
X14465300Y7251694D02*
G01*
X14465300Y7327894D01*
X14351000Y6603987D02*
G01*
X14351000Y7251687D01*
X14579600Y7251687D01*
X14579600Y6603987D01*
X14351000Y6603987D01*
X19202400Y6591294D02*
G01*
X19202400Y6515094D01*
X19202400Y7251694D02*
G01*
X19202400Y7327894D01*
X19088100Y6603987D02*
G01*
X19088100Y7251687D01*
X19316700Y7251687D01*
X19316700Y6603987D01*
X19088100Y6603987D01*
X12293600Y6591294D02*
G01*
X12293600Y6515094D01*
X12293600Y7251694D02*
G01*
X12293600Y7327894D01*
X12179300Y6603987D02*
G01*
X12179300Y7251687D01*
X12407900Y7251687D01*
X12407900Y6603987D01*
X12179300Y6603987D01*
X16764000Y6591294D02*
G01*
X16764000Y6515094D01*
X16764000Y7251694D02*
G01*
X16764000Y7327894D01*
X16649700Y6603987D02*
G01*
X16649700Y7251687D01*
X16878300Y7251687D01*
X16878300Y6603987D01*
X16649700Y6603987D01*
X21602700Y6527794D02*
G01*
X21602700Y6451594D01*
X21602700Y7188194D02*
G01*
X21602700Y7264394D01*
X21488400Y6540487D02*
G01*
X21488400Y7188187D01*
X21717000Y7188187D01*
X21717000Y6540487D01*
X21488400Y6540487D01*
X12077700Y5346776D02*
G01*
X12077700Y5156276D01*
X12077700Y4762576D02*
G01*
X12077700Y4953076D01*
X13093700Y5346776D02*
G01*
X13093700Y4762576D01*
X12077700Y5346776D02*
G01*
X12134819Y5346776D01*
X12274580Y5346776D02*
G01*
X12388819Y5346776D01*
X12528580Y5346776D02*
G01*
X12642819Y5346776D01*
X12782580Y5346776D02*
G01*
X12896819Y5346776D01*
X13036580Y5346776D02*
G01*
X13093700Y5346776D01*
X12077700Y4762576D02*
G01*
X12135015Y4762576D01*
X12274384Y4762576D02*
G01*
X12389015Y4762576D01*
X12528384Y4762576D02*
G01*
X12643015Y4762576D01*
X12782384Y4762576D02*
G01*
X12897015Y4762576D01*
X13036384Y4762576D02*
G01*
X13093700Y4762576D01*
X15951200Y5384876D02*
G01*
X15951200Y5194376D01*
X15951200Y4800676D02*
G01*
X15951200Y4991176D01*
X16967200Y5384876D02*
G01*
X16967200Y4800676D01*
X15951200Y5384876D02*
G01*
X16008319Y5384876D01*
X16148080Y5384876D02*
G01*
X16262319Y5384876D01*
X16402080Y5384876D02*
G01*
X16516319Y5384876D01*
X16656080Y5384876D02*
G01*
X16770319Y5384876D01*
X16910080Y5384876D02*
G01*
X16967200Y5384876D01*
X15951200Y4800676D02*
G01*
X16008515Y4800676D01*
X16147884Y4800676D02*
G01*
X16262515Y4800676D01*
X16401884Y4800676D02*
G01*
X16516515Y4800676D01*
X16655884Y4800676D02*
G01*
X16770515Y4800676D01*
X16909884Y4800676D02*
G01*
X16967200Y4800676D01*
X19558000Y5461076D02*
G01*
X19558000Y5270576D01*
X19558000Y4876876D02*
G01*
X19558000Y5067376D01*
X20574000Y5461076D02*
G01*
X20574000Y4876876D01*
X19558000Y5461076D02*
G01*
X19615119Y5461076D01*
X19754880Y5461076D02*
G01*
X19869119Y5461076D01*
X20008880Y5461076D02*
G01*
X20123119Y5461076D01*
X20262880Y5461076D02*
G01*
X20377119Y5461076D01*
X20516880Y5461076D02*
G01*
X20574000Y5461076D01*
X19558000Y4876876D02*
G01*
X19615315Y4876876D01*
X19754684Y4876876D02*
G01*
X19869315Y4876876D01*
X20008684Y4876876D02*
G01*
X20123315Y4876876D01*
X20262684Y4876876D02*
G01*
X20377315Y4876876D01*
X20516684Y4876876D02*
G01*
X20574000Y4876876D01*
D36*
X12118088Y8248904D02*
G01*
X10487911Y8248904D01*
X12118088Y8248904D02*
G01*
X12118088Y8778999D01*
X10487911Y8778999D01*
X10487911Y8248904D01*
X12118088Y8728961D02*
G01*
X10487911Y8728961D01*
X14111988Y8248904D02*
G01*
X12481811Y8248904D01*
X14111988Y8248904D02*
G01*
X14111988Y8778999D01*
X12481811Y8778999D01*
X12481811Y8248904D01*
X14111988Y8728961D02*
G01*
X12481811Y8728961D01*
X16436088Y8248904D02*
G01*
X14805911Y8248904D01*
X16436088Y8248904D02*
G01*
X16436088Y8778999D01*
X14805911Y8778999D01*
X14805911Y8248904D01*
X16436088Y8728961D02*
G01*
X14805911Y8728961D01*
X18429988Y8210804D02*
G01*
X16799811Y8210804D01*
X18429988Y8210804D02*
G01*
X18429988Y8740899D01*
X16799811Y8740899D01*
X16799811Y8210804D01*
X18429988Y8690861D02*
G01*
X16799811Y8690861D01*
X20741388Y8210804D02*
G01*
X19111211Y8210804D01*
X20741388Y8210804D02*
G01*
X20741388Y8740899D01*
X19111211Y8740899D01*
X19111211Y8210804D01*
X20741388Y8690861D02*
G01*
X19111211Y8690861D01*
X22671788Y8185404D02*
G01*
X21041611Y8185404D01*
X22671788Y8185404D02*
G01*
X22671788Y8715499D01*
X21041611Y8715499D01*
X21041611Y8185404D01*
X22671788Y8665461D02*
G01*
X21041611Y8665461D01*
D10*
X10562600Y6621787D02*
G01*
X10562600Y6941786D01*
X10722599Y6621787D02*
G01*
X10722599Y6941786D01*
X10562600Y6621787D02*
G01*
X10722599Y6621787D01*
X10562600Y6941786D02*
G01*
X10722599Y6941786D01*
X10562600Y6678076D02*
G01*
X10722599Y6678076D01*
X14804400Y6621787D02*
G01*
X14804400Y6941786D01*
X14964399Y6621787D02*
G01*
X14964399Y6941786D01*
X14804400Y6621787D02*
G01*
X14964399Y6621787D01*
X14804400Y6941786D02*
G01*
X14964399Y6941786D01*
X14804400Y6678076D02*
G01*
X14964399Y6678076D01*
X19554200Y6570987D02*
G01*
X19554200Y6890986D01*
X19714199Y6570987D02*
G01*
X19714199Y6890986D01*
X19554200Y6570987D02*
G01*
X19714199Y6570987D01*
X19554200Y6890986D02*
G01*
X19714199Y6890986D01*
X19554200Y6627276D02*
G01*
X19714199Y6627276D01*
X12594600Y6609087D02*
G01*
X12594600Y6929086D01*
X12754599Y6609087D02*
G01*
X12754599Y6929086D01*
X12594600Y6609087D02*
G01*
X12754599Y6609087D01*
X12594600Y6929086D02*
G01*
X12754599Y6929086D01*
X12594600Y6665376D02*
G01*
X12754599Y6665376D01*
X17090400Y6621787D02*
G01*
X17090400Y6941786D01*
X17250399Y6621787D02*
G01*
X17250399Y6941786D01*
X17090400Y6621787D02*
G01*
X17250399Y6621787D01*
X17090400Y6941786D02*
G01*
X17250399Y6941786D01*
X17090400Y6678076D02*
G01*
X17250399Y6678076D01*
X21903700Y6545587D02*
G01*
X21903700Y6865586D01*
X22063699Y6545587D02*
G01*
X22063699Y6865586D01*
X21903700Y6545587D02*
G01*
X22063699Y6545587D01*
X21903700Y6865586D02*
G01*
X22063699Y6865586D01*
X21903700Y6601876D02*
G01*
X22063699Y6601876D01*
X11892899Y7261900D02*
G01*
X11892899Y6631899D01*
X11892899Y6631899D02*
G01*
X11652900Y6631899D01*
X11652900Y6631899D02*
G01*
X11652900Y7261900D01*
X11652900Y7261900D02*
G01*
X11892899Y7261900D01*
X16325199Y7236500D02*
G01*
X16325199Y6606499D01*
X16325199Y6606499D02*
G01*
X16085200Y6606499D01*
X16085200Y6606499D02*
G01*
X16085200Y7236500D01*
X16085200Y7236500D02*
G01*
X16325199Y7236500D01*
X21138499Y7185700D02*
G01*
X21138499Y6555699D01*
X21138499Y6555699D02*
G01*
X20898500Y6555699D01*
X20898500Y6555699D02*
G01*
X20898500Y7185700D01*
X20898500Y7185700D02*
G01*
X21138499Y7185700D01*
X14013799Y7236500D02*
G01*
X14013799Y6606499D01*
X14013799Y6606499D02*
G01*
X13773800Y6606499D01*
X13773800Y6606499D02*
G01*
X13773800Y7236500D01*
X13773800Y7236500D02*
G01*
X14013799Y7236500D01*
X18738199Y7198400D02*
G01*
X18738199Y6568399D01*
X18738199Y6568399D02*
G01*
X18498200Y6568399D01*
X18498200Y6568399D02*
G01*
X18498200Y7198400D01*
X18498200Y7198400D02*
G01*
X18738199Y7198400D01*
X23019400Y6466799D02*
G01*
X23019400Y7096800D01*
X23019400Y7096800D02*
G01*
X23259399Y7096800D01*
X23259399Y7096800D02*
G01*
X23259399Y6466799D01*
X23259399Y6466799D02*
G01*
X23019400Y6466799D01*
X21580800Y4081701D02*
G01*
X21470800Y4081701D01*
X21470800Y4580699D01*
X21470800Y4580699D02*
G01*
X21807924Y4580699D01*
X21807924Y4580699D02*
G01*
X21807924Y4081701D01*
X21698800Y4081701D01*
X21158596Y3364699D02*
G01*
X21158596Y3489700D01*
X20954603Y3364699D02*
G01*
X20954603Y3489700D01*
X21158596Y3264700D02*
G01*
X21158596Y3139699D01*
X20954603Y3264700D02*
G01*
X20954603Y3139699D01*
X21158596Y3489703D02*
G01*
X20954603Y3489700D01*
X21158596Y3139699D02*
G01*
X20954603Y3139699D01*
X21487599Y2666603D02*
G01*
X21612600Y2666603D01*
X21487599Y2870596D02*
G01*
X21612600Y2870596D01*
X21387600Y2666603D02*
G01*
X21262599Y2666603D01*
X21387600Y2870596D02*
G01*
X21262599Y2870596D01*
X21612603Y2666603D02*
G01*
X21612600Y2870596D01*
X21262599Y2666603D02*
G01*
X21262599Y2870596D01*
X22071799Y2666603D02*
G01*
X22196800Y2666603D01*
X22071799Y2870596D02*
G01*
X22196800Y2870596D01*
X21971800Y2666603D02*
G01*
X21846799Y2666603D01*
X21971800Y2870596D02*
G01*
X21846799Y2870596D01*
X22196803Y2666603D02*
G01*
X22196800Y2870596D01*
X21846799Y2666603D02*
G01*
X21846799Y2870596D01*
X20925797Y4620003D02*
G01*
X21085799Y4620003D01*
X20925797Y4269996D02*
G01*
X21085802Y4269999D01*
X21109800Y4494999D02*
G01*
X21109800Y4599998D01*
X20901799Y4494999D02*
G01*
X20901799Y4599998D01*
X21109800Y4395000D02*
G01*
X21109800Y4290001D01*
X20901799Y4395000D02*
G01*
X20901799Y4290001D01*
X20923806Y4269996D02*
G01*
X20925797Y4269996D01*
X20921804Y4269996D02*
G01*
X20925797Y4269996D01*
X21089797Y4269999D02*
G01*
X21085802Y4269999D01*
X20921804Y4620003D02*
G01*
X20925797Y4620003D01*
X21089795Y4620003D02*
G01*
X21085799Y4620003D01*
D37*
X21383180Y3162559D02*
G01*
X21383180Y3466840D01*
X21898419Y3466840D01*
X21898419Y3162559D01*
X21383180Y3162559D01*
D10*
X13473300Y10379354D02*
G01*
X12917299Y10379354D01*
X13473300Y10274300D02*
G01*
X12917299Y10274300D01*
X13473300Y9965697D02*
G01*
X12917299Y9965697D01*
X13473300Y10434899D02*
G01*
X12917299Y10434899D01*
X12917299Y9807900D02*
G01*
X12917299Y10434899D01*
X13473300Y9807900D02*
G01*
X13473300Y10434899D01*
X13473300Y9807900D02*
G01*
X12917299Y9807900D01*
X18745200Y9670201D02*
G01*
X15697200Y9670201D01*
X15697200Y9670201D02*
G01*
X15697200Y10915200D01*
X15697200Y10915202D02*
G01*
X18745200Y10915202D01*
X18745200Y9670201D02*
G01*
X18745200Y10915202D01*
X18414987Y10642602D02*
G01*
X18414987Y10414002D01*
X18656287Y10414002D01*
X18072087Y10401302D02*
G01*
X18313387Y10401302D01*
X18313387Y10642602D01*
X18313387Y10071102D02*
G01*
X18313387Y10312402D01*
X18072087Y10312402D01*
X18656287Y10312402D02*
G01*
X18414987Y10312402D01*
X18414987Y10071102D01*
X17652987Y10642602D02*
G01*
X17652987Y10414002D01*
X17894287Y10414002D01*
X17310087Y10401302D02*
G01*
X17551387Y10401302D01*
X17551387Y10642602D01*
X17551387Y10071102D02*
G01*
X17551387Y10312402D01*
X17310087Y10312402D01*
X17894287Y10312402D02*
G01*
X17652987Y10312402D01*
X17652987Y10071102D01*
X16370284Y10312402D02*
G01*
X16128984Y10312402D01*
X16128984Y10071102D01*
X16027384Y10071102D02*
G01*
X16027384Y10312402D01*
X15786084Y10312402D01*
X15786084Y10401302D02*
G01*
X16027384Y10401302D01*
X16027384Y10642602D01*
X16128984Y10642602D02*
G01*
X16128984Y10414002D01*
X16370284Y10414002D01*
X17132284Y10312402D02*
G01*
X16890984Y10312402D01*
X16890984Y10071102D01*
X16789384Y10071102D02*
G01*
X16789384Y10312402D01*
X16548084Y10312402D01*
X16548084Y10401302D02*
G01*
X16789384Y10401302D01*
X16789384Y10642602D01*
X16890984Y10642602D02*
G01*
X16890984Y10414002D01*
X17132284Y10414002D01*
X17297400Y9677400D02*
G01*
X17145000Y9677400D01*
X17145000Y10909300D01*
X17297400Y10909300D01*
X17297400Y9677400D01*
X18059400Y9677400D02*
G01*
X17907000Y9677400D01*
X17907000Y10909300D01*
X18059400Y10909300D01*
X18059400Y9677400D01*
X16535400Y9677400D02*
G01*
X16383000Y9677400D01*
X16383000Y10909300D01*
X16535400Y10909300D01*
X16535400Y9677400D01*
X15773400Y9677400D02*
G01*
X15697200Y9677400D01*
X15697200Y10909300D01*
X15773400Y10909300D01*
X15773400Y9677400D01*
X18745200Y9677400D02*
G01*
X18669000Y9677400D01*
X18669000Y10909300D01*
X18745200Y10909300D01*
X18745200Y9677400D01*
X17273399Y2638099D02*
G01*
X18337400Y2638099D01*
X18110903Y2600906D02*
G01*
X18264573Y2600906D01*
X18110903Y2638102D02*
G01*
X18110903Y2564096D01*
X18264573Y2564096D01*
X18264573Y2638102D01*
X17864665Y2600906D02*
G01*
X18018338Y2600906D01*
X17864665Y2638102D02*
G01*
X17864665Y2564096D01*
X18018338Y2564096D01*
X18018338Y2638102D01*
X17597965Y2600906D02*
G01*
X17751638Y2600906D01*
X17597965Y2638102D02*
G01*
X17597965Y2564096D01*
X17751638Y2564096D01*
X17751638Y2638102D01*
X17351728Y2600906D02*
G01*
X17505400Y2600906D01*
X17351728Y2638099D02*
G01*
X17351728Y2564099D01*
X17505400Y2564099D01*
X17505400Y2638099D01*
X17273399Y2054227D02*
G01*
X18337400Y2054227D01*
X17273399Y2162601D02*
G01*
X18337400Y2162601D01*
X17273399Y2491107D02*
G01*
X18337400Y2491107D01*
X17273399Y2011100D02*
G01*
X18337400Y2011100D01*
X18337400Y2638099D02*
G01*
X18337400Y2011100D01*
X17273399Y2638099D02*
G01*
X17273399Y2011100D01*
X22761900Y2160399D02*
G01*
X22761900Y3224400D01*
X22799093Y2997903D02*
G01*
X22799093Y3151573D01*
X22761897Y2997903D02*
G01*
X22835903Y2997903D01*
X22835903Y3151573D01*
X22761897Y3151573D01*
X22799093Y2751665D02*
G01*
X22799093Y2905338D01*
X22761897Y2751665D02*
G01*
X22835903Y2751665D01*
X22835903Y2905338D01*
X22761897Y2905338D01*
X22799093Y2484965D02*
G01*
X22799093Y2638638D01*
X22761897Y2484965D02*
G01*
X22835903Y2484965D01*
X22835903Y2638638D01*
X22761897Y2638638D01*
X22799093Y2238728D02*
G01*
X22799093Y2392400D01*
X22761900Y2238728D02*
G01*
X22835900Y2238728D01*
X22835900Y2392400D01*
X22761900Y2392400D01*
X23345772Y2160399D02*
G01*
X23345772Y3224400D01*
X23237398Y2160399D02*
G01*
X23237398Y3224400D01*
X22908892Y2160399D02*
G01*
X22908892Y3224400D01*
X23388899Y2160399D02*
G01*
X23388899Y3224400D01*
X22761900Y3224400D02*
G01*
X23388899Y3224400D01*
X22761900Y2160399D02*
G01*
X23388899Y2160399D01*
G75*
G01*
X13841600Y3256636D02*
G02*
X13841476Y3118663I-62J-68987D01*
G75*
G01*
X14540100Y3256636D02*
G02*
X14539976Y3118663I-62J-68987D01*
G75*
G01*
X15238600Y3256636D02*
G02*
X15238476Y3118663I-62J-68987D01*
G75*
G01*
X15924400Y3269336D02*
G02*
X15924276Y3131363I-62J-68987D01*
G75*
G01*
X12077700Y5156276D02*
G02*
X12077700Y4953076I0J-101600D01*
G75*
G01*
X15951200Y5194376D02*
G02*
X15951200Y4991176I0J-101600D01*
G75*
G01*
X19558000Y5270576D02*
G02*
X19558000Y5067376I0J-101600D01*
D38*
G75*
G01*
X10422890Y8521446D02*
G03*
X10423144Y8521446I127J-12445D01*
G75*
G01*
X12416790Y8521446D02*
G03*
X12417044Y8521446I127J-12445D01*
G75*
G01*
X14740890Y8521446D02*
G03*
X14741144Y8521446I127J-12445D01*
G75*
G01*
X16734790Y8483346D02*
G03*
X16735044Y8483346I127J-12445D01*
G75*
G01*
X19046190Y8483346D02*
G03*
X19046444Y8483346I127J-12445D01*
G75*
G01*
X20976590Y8457946D02*
G03*
X20976844Y8457946I127J-12445D01*
D10*
G75*
G01*
X21580800Y4081701D02*
G02*
X21698801Y4081701I59001J4468D01*
G75*
G01*
X20901800Y4290002D02*
G03*
X20921805Y4269997I20005J0D01*
G75*
G01*
X21109800Y4290002D02*
G02*
X21089798Y4269999I-20002J0D01*
G75*
G01*
X20901800Y4599998D02*
G02*
X20921805Y4620003I20005J0D01*
G75*
G01*
X21109800Y4599998D02*
G03*
X21089795Y4620003I-20005J0D01*
G75*
G01
X21785707Y10363200D02*
G03X21785707Y10363200I-297307J0D01*
G75*
G01
X21023707Y10363200D02*
G03X21023707Y10363200I-297307J0D01*
G75*
G01
X19499707Y10363200D02*
G03X19499707Y10363200I-297307J0D01*
G75*
G01
X20261707Y10363200D02*
G03X20261707Y10363200I-297307J0D01*
D20*
G75*
G01
X11946712Y5257800D02*
G03X11946712Y5257800I-250012J0D01*
G75*
G01
X15782112Y5359400D02*
G03X15782112Y5359400I-250012J0D01*
G75*
G01
X19363512Y5372100D02*
G03X19363512Y5372100I-250012J0D01*
G75*
G01
X21465311Y3237789D02*
G03X21465311Y3237789I-15011J0D01*
G75*
G01
X21388578Y3046451D02*
G03X21388578Y3046451I-15011J0D01*
D10*
G75*
G01
X18661507Y10363200D02*
G03X18661507Y10363200I-297307J0D01*
G75*
G01
X17899507Y10363200D02*
G03X17899507Y10363200I-297307J0D01*
G75*
G01
X16375507Y10363200D02*
G03X16375507Y10363200I-297307J0D01*
G75*
G01
X17137507Y10363200D02*
G03X17137507Y10363200I-297307J0D01*
M02*
