M48
METRIC,LZ,000.000
;FILE_FORMAT=3:3
;TYPE=PLATED
;Layer: Drill PTH
;EasyEDA v6.4.23, 2021-09-03T20:20:49+02:00
;56e5470889644eeea0650e3736ad501c,9749f264c22c4078942e6e06db5db619,10
;Gerber Generator version 0.2
;Holesize 1 = 0.900 mm
T01C0.900
;Holesize 2 = 0.901 mm
T02C0.901
;Holesize 3 = 0.940 mm
T03C0.940
;Holesize 4 = 1.000 mm
T04C1.000
;Holesize 5 = 1.200 mm
T05C1.200
;Holesize 6 = 1.501 mm
T06C1.501
;Holesize 7 = 2.301 mm
T07C2.301
%
G05
G90
T01
X069190Y091000
X076810Y091000
T02
X085000Y097000
X094000Y097000
X096000Y092000
X096000Y083000
T03
X087095Y089746
X089000Y092159
X090905Y089746
T04
X094127Y078166
X094127Y067666
T05
X044641Y039446G85X038441Y039446
X044641Y020846G85X038441Y020846
X029841Y020846G85X023641Y020846
X024441Y034846G85X024441Y041046
X094000Y055000
X094000Y059000
X094000Y063000
T06
X065250Y076750
X072250Y076750
X068750Y069250
X088750Y076750
X088750Y069250
X014675Y080211
X014675Y060511
X034975Y080211
X034975Y060511
X024975Y058121
X096000Y033000
X096000Y023000
X015000Y091000
X035000Y091000
X025000Y091000
X096000Y012000
T07
X068000Y042000
X078000Y042000
M30
