G04 Layer: BottomSolderMaskLayer*
G04 EasyEDA v6.4.23, 2021-09-03T20:20:49+02:00*
G04 56e5470889644eeea0650e3736ad501c,9749f264c22c4078942e6e06db5db619,10*
G04 Gerber Generator version 0.2*
G04 Scale: 100 percent, Rotated: No, Reflected: No *
G04 Dimensions in millimeters *
G04 leading zeros omitted , absolute positions ,4 integer and 5 decimal *
%FSLAX45Y45*%
%MOMM*%

%ADD29C,3.7032*%
%ADD30C,2.0828*%
%ADD31C,2.5032*%
%ADD32C,1.7272*%
%ADD33C,2.4000*%
%ADD34C,3.2032*%
%ADD35C,2.2032*%

%LPD*%
G36*
X3718306Y3832097D02*
G01*
X3718306Y4052315D01*
X4588509Y4052315D01*
X4588509Y3832097D01*
G37*
G36*
X3717797Y1972310D02*
G01*
X3717797Y2192528D01*
X4588256Y2192528D01*
X4588256Y1972310D01*
G37*
G36*
X2237993Y1971802D02*
G01*
X2237993Y2192273D01*
X3108452Y2192273D01*
X3108452Y1971802D01*
G37*
G36*
X2331465Y3360420D02*
G01*
X2331465Y4230623D01*
X2551684Y4230623D01*
X2551684Y3360420D01*
G37*
D29*
G01*
X6800011Y4199991D03*
G01*
X7800009Y4199991D03*
D30*
G01*
X6919010Y9100007D03*
G01*
X7681010Y9100007D03*
D31*
G01*
X6525006Y7675041D03*
G01*
X7225029Y7675041D03*
G01*
X6875018Y6924979D03*
G01*
X8875013Y7675041D03*
G01*
X8875013Y6924979D03*
D30*
G01*
X9412706Y7816595D03*
G01*
X9412706Y6766610D03*
D32*
G01*
X8709507Y8974607D03*
G01*
X8900007Y9215907D03*
G01*
X9090507Y8974607D03*
D33*
G01*
X8500008Y9700005D03*
G01*
X9400006Y9700005D03*
G01*
X9600006Y9200006D03*
G01*
X9600006Y8300008D03*
D34*
G01*
X1467510Y8021091D03*
G01*
X1467510Y6051092D03*
G01*
X3497503Y8021091D03*
G01*
X3497503Y6051092D03*
G01*
X2497505Y5812104D03*
D35*
G01*
X9400006Y5499988D03*
G01*
X9400006Y5899988D03*
G01*
X9400006Y6299987D03*
D34*
G01*
X9600006Y3299993D03*
G01*
X9600006Y2299995D03*
G01*
X1499996Y9100007D03*
G01*
X3499993Y9100007D03*
G01*
X2499995Y9100007D03*
G01*
X9600006Y1199997D03*
M02*
