G04 Layer: BottomLayer*
G04 EasyEDA v6.4.23, 2021-09-03T20:20:49+02:00*
G04 56e5470889644eeea0650e3736ad501c,9749f264c22c4078942e6e06db5db619,10*
G04 Gerber Generator version 0.2*
G04 Scale: 100 percent, Rotated: No, Reflected: No *
G04 Dimensions in millimeters *
G04 leading zeros omitted , absolute positions ,4 integer and 5 decimal *
%FSLAX45Y45*%
%MOMM*%

%ADD12C,6.0000*%
%ADD13C,3.0000*%
%ADD18C,3.5000*%
%ADD19C,1.8796*%
%ADD20C,2.3000*%
%ADD21C,1.5240*%
%ADD22C,2.0000*%
%ADD23C,5.0000*%
%ADD24C,8.0000*%

%LPD*%
D12*
X1997501Y2112101D02*
G01*
X2897502Y2112101D01*
D23*
X1497502Y6012098D02*
G01*
X1497502Y2470815D01*
X1897501Y2112101D01*
D24*
X4197504Y3912097D02*
G01*
X4197504Y5412099D01*
X3597503Y6012098D01*
D12*
X6799999Y4199999D02*
G01*
X6799999Y3700002D01*
X7100001Y3400000D01*
X9500001Y3400000D01*
X9600001Y3300001D01*
X1499999Y9099999D02*
G01*
X1499999Y8099999D01*
X2500000Y9099999D02*
G01*
X2500000Y5800001D01*
X3500000Y9099999D02*
G01*
X3500000Y7999999D01*
X2500122Y7199884D02*
G01*
X500126Y7199884D01*
X500126Y400050D01*
X9299956Y400050D01*
X9299956Y899921D01*
X9599929Y1199895D01*
G36*
X3728374Y4042133D02*
G01*
X3728374Y3842133D01*
X4578360Y3842133D01*
X4578360Y4042133D01*
G37*
G36*
X3728069Y2182446D02*
G01*
X3728069Y1982447D01*
X4578055Y1982447D01*
X4578055Y2182446D01*
G37*
G36*
X2248214Y2182065D02*
G01*
X2248214Y1982066D01*
X3098200Y1982066D01*
X3098200Y2182065D01*
G37*
G36*
X2541635Y4220466D02*
G01*
X2341636Y4220466D01*
X2341636Y3370480D01*
X2541635Y3370480D01*
G37*
D18*
G01*
X6800011Y4199991D03*
G01*
X7800009Y4199991D03*
D19*
G01*
X6919010Y9100007D03*
G01*
X7681010Y9100007D03*
D20*
G01*
X6525006Y7675041D03*
G01*
X7225029Y7675041D03*
G01*
X6875018Y6924979D03*
G01*
X8875013Y7675041D03*
G01*
X8875013Y6924979D03*
D19*
G01*
X9412706Y7816595D03*
G01*
X9412706Y6766610D03*
D21*
G01*
X8709507Y8974607D03*
G01*
X8900007Y9215907D03*
G01*
X9090507Y8974607D03*
D22*
G01*
X8500008Y9700005D03*
G01*
X9400006Y9700005D03*
G01*
X9600006Y9200006D03*
G01*
X9600006Y8300008D03*
D13*
G01*
X1467510Y8021091D03*
G01*
X1467510Y6051092D03*
G01*
X3497503Y8021091D03*
G01*
X3497503Y6051092D03*
G01*
X2497505Y5812104D03*
D22*
G01*
X9400006Y5499988D03*
G01*
X9400006Y5899988D03*
G01*
X9400006Y6299987D03*
D13*
G01*
X9600006Y3299993D03*
G01*
X9600006Y2299995D03*
G01*
X1499996Y9100007D03*
G01*
X3499993Y9100007D03*
G01*
X2499995Y9100007D03*
G01*
X9600006Y1199997D03*
M02*
